<?xml version="1.0" encoding="UTF-8"?>
<svg width="64px" height="64px" viewBox="0 0 64 64" version="1.1" xmlns="http://www.w3.org/2000/svg" xmlns:xlink="http://www.w3.org/1999/xlink">
    <title>battery_alarm</title>
    <g id="battery_alarm" stroke="none" fill="none" fill-rule="evenodd">
        <path d="M27,12 C29.7614237,12 32,14.2385763 32,17 L32,47.551 L29.5537007,51.7887505 C28.8847802,52.947053 28.8415852,54.2881691 29.3154638,55.431315 C28.6242638,55.7947799 27.8360977,56 27,56 L13,56 C10.2385763,56 8,53.7614237 8,51 L8,17 C8,14.2385763 10.2385763,12 13,12 L27,12 Z M46.3069857,33.0352841 L57.7147391,52.7889459 C57.9016999,53.1126873 58,53.4787144 58,53.8511348 C58,55.0379203 57.0229073,56 55.8176024,56 L33.1827753,56 C32.8045434,56 32.4328046,55.9032103 32.1040113,55.7191221 C31.0562517,55.1324914 30.6898538,53.8206068 31.2856386,52.7889459 L42.693392,33.0352841 C42.8783151,32.7150713 43.1475849,32.4499388 43.4727946,32.267857 C44.4706609,31.7091611 45.7395715,32.0527499 46.3069857,33.0352841 Z M44.5011201,50 C43.6720744,50 43,50.6715729 43,51.5 C43,52.3284271 43.6720744,53 44.5011201,53 C45.3301658,53 46.0022402,52.3284271 46.0022402,51.5 C46.0022402,50.6715729 45.3301658,50 44.5011201,50 Z M27,16 L13,16 C12.4477153,16 12,16.4477153 12,17 L12,51 C12,51.5522847 12.4477153,52 13,52 L27,52 C27.5522847,52 28,51.5522847 28,51 L28,17 C28,16.4477153 27.5522847,16 27,16 Z M25.8320503,29.3138169 C25.941562,29.4780844 26,29.6710921 26,29.8685171 L26,49 C26,49.5522847 25.5522847,50 25,50 L15,50 C14.4477153,50 14,49.5522847 14,49 L14,36.5351838 C14,36.2008306 14.1671011,35.8885992 14.4452998,35.7031335 L24.4452998,29.0364668 C24.9048285,28.7301143 25.5256978,28.8542882 25.8320503,29.3138169 Z M45.4908345,39 L43.4824171,39.0006547 C43.2016014,39.0144046 42.9859367,39.2373335 43.0007165,39.4985805 L43.4562856,47.5512121 C43.4705188,47.8027975 43.6939427,48 43.9647474,48 L45.0352653,48 C45.30607,48 45.5294939,47.8027975 45.5437271,47.5512121 L45.999824,39.4861367 L46,39.4736842 C46,39.2120756 45.7720388,39 45.4908345,39 Z M21,6 C23.1421954,6 24.8910789,7.68396847 24.9951047,9.80035966 L25,10 L15,10 C15,7.790861 16.790861,6 19,6 L21,6 Z" id="Combined-Shape" fill="#000000"></path>
    </g>
</svg>