<?xml version="1.0" encoding="UTF-8"?>
<svg width="64px" height="64px" viewBox="0 0 64 64" version="1.1" xmlns="http://www.w3.org/2000/svg" xmlns:xlink="http://www.w3.org/1999/xlink">
    <title>charger</title>
    <g id="charger" stroke="none" fill="none" fill-rule="evenodd">
        <path d="M27,8 C29.7614237,8 32,10.2385763 32,13 L32,56 L8,56 L8,13 C8,10.2385763 10.2385763,8 13,8 L27,8 Z M23.7422117,28.9785297 C23.5306938,28.8010057 23.2153129,28.8285633 23.037789,29.0400812 L14.3788384,39.3571288 C14.2276735,39.5372401 14.1448126,39.7648598 14.1448126,40 C14.1448126,40.5522847 14.5925279,41 15.1448126,41 L18.8928126,40.9995053 L16.3557346,48.477835 C16.2894958,48.6730649 16.3498744,48.8889353 16.5077883,49.0214703 C16.7193062,49.1989943 17.0346871,49.1714367 17.212211,48.9599188 L25.8711616,38.6428712 C26.0223265,38.4627599 26.1051874,38.2351402 26.1051874,38 C26.1051874,37.4477153 25.6574721,37 25.1051874,37 L21.3568126,36.9995053 L23.8942654,29.522165 C23.9605042,29.3269351 23.9001256,29.1110647 23.7422117,28.9785297 Z M26,12 L14,12 C12.8954305,12 12,12.8954305 12,14 L12,22 C12,23.1045695 12.8954305,24 14,24 L26,24 C27.1045695,24 28,23.1045695 28,22 L28,14 C28,12.8954305 27.1045695,12 26,12 Z" id="Combined-Shape" fill="#000000"></path>
        <g id="Group" stroke-width="1" transform="translate(46, 30.9409) scale(-1, 1) rotate(-90) translate(-46, -30.9409)translate(22.9409, 20.9409)">
            <line x1="44" y1="5" x2="35" y2="5" id="Path-33" stroke="#000000" stroke-width="4" stroke-linecap="round"></line>
            <line x1="44" y1="15" x2="34" y2="15" id="Path-33" stroke="#000000" stroke-width="4" stroke-linecap="round"></line>
            <path d="M25.3343591,0 L31.1541722,2.26708535e-16 C32.4914503,-1.31724187e-16 32.9763797,0.139238417 33.4652686,0.400699056 C33.9541574,0.662159695 34.3378403,1.04584256 34.5993009,1.53473144 C34.8607616,2.02362033 35,2.50854969 35,3.8458278 L35,16.1541722 C35,17.4914503 34.8607616,17.9763797 34.5993009,18.4652686 C34.3378403,18.9541574 33.9541574,19.3378403 33.4652686,19.5993009 C32.9763797,19.8607616 32.4914503,20 31.1541722,20 L25.3343591,20 C23.0885587,20 22.0472407,19.7215232 21.0694629,19.1986019 C20.0916851,18.6756806 19.3243194,17.9083149 18.8013981,16.9305371 C18.2784768,15.9527593 18,14.9114413 18,12.6656409 L18,7.3343591 C18,5.08855868 18.2784768,4.04724067 18.8013981,3.06946289 C19.3243194,2.09168511 20.0916851,1.32431939 21.0694629,0.801398111 C22.0472407,0.278476833 23.0885587,0 25.3343591,0 Z" id="Rectangle" fill="#000000"></path>
            <path d="M26.7849462,10 L6,10 C2.6862915,10 -1.77635684e-15,12.6862915 -8.8817842e-16,16 C0,16.6666667 0,17.3333333 0,18" id="Path-34" stroke="#000000" stroke-width="4" stroke-linecap="round"></path>
        </g>
        <path d="M42,31 L50,31 L50,36 C48.8954305,36 48,36.8954305 48,38 L48,40 L48,40 L44,40 L44,38 C44,36.8954305 43.1045695,36 42,36 L42,36 L42,36 L42,31 Z" id="Rectangle" fill="#000000"></path>
        <rect id="Rectangle" fill="#000000" x="6" y="50" width="28" height="6" rx="2"></rect>
    </g>
</svg>