<?xml version="1.0" encoding="UTF-8"?>
<svg width="64px" height="64px" viewBox="0 0 64 64" version="1.1" xmlns="http://www.w3.org/2000/svg" xmlns:xlink="http://www.w3.org/1999/xlink">
    <title>locked_ev6</title>
    <g id="locked_ev6" stroke="none" fill="none" fill-rule="evenodd">
        <path d="M5.99956318,49.4639766 C6.5926598,49.8067712 7.27811299,50 8,50 L14,50 L14,51 C14,52.1045695 13.1045695,53 12,53 L8,53 C6.8954305,53 6,52.1045695 6,51 L5.99956318,49.4639766 Z M44,15 C49.5228475,15 54,19.4771525 54,25 L54,30 C56.209139,30 58,31.790861 58,34 L58,48 C58,50.209139 56.209139,52 54,52 L34,52 C31.790861,52 30,50.209139 30,48 L30,34 C30,31.790861 31.790861,30 34,30 L34,25 C34,19.4771525 38.4771525,15 44,15 Z M26,42.002 L26,47.999 L8,48 C7.08226472,48 6.2822985,47.3754053 6.059715,46.4850713 C5.72270193,45.137019 5.46700278,43.6431399 5.29128957,42.0021089 L26,42.002 Z M44,36 C42.3431458,36 41,37.3431458 41,39 C41,40.1916426 41.6947788,41.2210109 42.7013486,41.705117 L42.0136061,45.835601 C41.9120175,46.4451327 42.3820606,47 43,47 L45,47 C45.6179394,47 46.0879825,46.4451327 45.9863939,45.835601 L45.2986514,41.705117 C46.3052212,41.2210109 47,40.1916426 47,39 C47,37.3431458 45.6568542,36 44,36 Z M32,11 C34.9134924,11 37.8266231,11.1273265 40.7395273,11.3820096 C38.2180072,11.9832132 35.9614477,13.2666459 34.1753053,15.0262624 C33.4503878,15.0082174 32.7251985,15 32,15 C28.0633859,15 24.1265386,15.2421397 20.1890077,15.7265033 C19.634508,15.7952354 19.1358765,16.0929727 18.8119311,16.5431418 L18.7201058,16.6826888 L14.931,23 L30.1417189,23.0004114 C30.0483236,23.6534863 30,24.3210999 30,25 L30,27.07 L29.8953694,27.1318483 C28.1142465,28.1985976 26.7825889,29.9385505 26.2520111,32.0000927 L23,32 L8,30 L8.58219949,33.493197 C8.82329348,34.9397609 10.0748638,36 11.5413813,36 L18.5147186,36 C20.1060176,36 21.632141,35.367859 22.7573593,34.2426407 L23,34 L26,34 L26,40.001 L5.12125725,40.0014461 C5.04025657,38.7435092 5,37.4098559 5,36 C5,33.402932 5.1366938,31.0658609 5.41217134,28.9862335 C5.67327995,27.0145249 6.65444422,25.2360582 8.12888218,23.9689218 C7.84390122,23.9398066 7.56147675,23.8903692 7.28342,23.820855 L4.75746437,23.1893661 C4.31229737,23.0780743 4,22.6780912 4,22.2192236 L4,20.8471271 C4,20.3582879 4.35341304,19.9410978 4.83560101,19.8607332 L8.83560101,19.1940665 C8.88993244,19.1850113 8.94491914,19.1804604 9,19.1804604 C9.55228475,19.1804604 10,19.6281757 10,20.1804604 L10,22 L10.865,22 L15.2897304,14.6253788 C16.1945646,13.116782 17.7131305,12.0851759 19.4392669,11.7947599 L19.6996933,11.7567894 C23.7998937,11.2521707 27.8998303,11 32,11 Z M44,19 C40.6862915,19 38,21.6862915 38,25 L38,30 L50,30 L50,25 C50,21.6862915 47.3137085,19 44,19 Z" id="Shape" fill="#000000"></path>
    </g>
</svg>