<?xml version="1.0" encoding="UTF-8"?>
<svg width="64px" height="64px" viewBox="0 0 64 64" version="1.1" xmlns="http://www.w3.org/2000/svg" xmlns:xlink="http://www.w3.org/1999/xlink">
    <title>engine_on</title>
    <g id="engine_on" stroke="none" fill="none" fill-rule="nonzero">
        <path d="M45.7658345,12.3403509 C49.3653151,14.8607344 52.0615214,18.1902579 53.7807686,21.9110341 C55.2442935,25.0606525 55.9709185,28.4205161 56.0010779,31.7619143 L56.0010779,32.2380857 C55.9709185,35.5794839 55.2442935,38.9393475 53.7808848,42.0890206 C52.6177403,44.6059792 51.007637,46.9439479 48.9732693,48.9735075 C46.9439479,51.007637 44.6059792,52.6177403 42.0889659,53.7807686 C38.9393475,55.2442935 35.5794839,55.9709185 32.2380857,56.0010779 L31.7619143,56.0010779 C28.4205161,55.9709185 25.0606525,55.2442935 21.9109794,53.7808848 C19.3940208,52.6177403 17.0560521,51.007637 15.0264925,48.9732693 C12.992363,46.9439479 11.3822597,44.6059792 10.2192314,42.0889659 C8.75570648,38.9393475 8.02908154,35.5794839 7.99892214,32.2380857 L7.99892214,31.7619143 C8.02908154,28.4205161 8.75570648,25.0606525 10.2191152,21.9109794 C11.9384786,18.1902579 14.6346849,14.8607344 18.2341655,12.3403509 C19.1389759,11.7067959 20.3860675,11.9266918 21.0196225,12.8315022 C21.6531775,13.7363125 21.4332816,14.9834041 20.5284713,15.6169591 C18.5932706,16.9720012 16.9713792,18.6077012 15.6792863,20.4305443 L15.6169591,20.5284713 C14.9329033,21.5054042 14.3483406,22.5222394 13.8611496,23.566946 C12.7740058,25.9113045 12.1526804,28.4423197 12.0236085,31.009686 L12.0014324,31.6273292 L11.9982928,31.9999997 L12.0020748,32.3724325 C12.0550401,35.0970937 12.6627102,37.7944893 13.7935045,40.2855176 C14.293763,41.3823561 14.900842,42.4488075 15.6169591,43.4715287 C16.2964239,44.4419051 17.0464564,45.333504 17.8552663,46.1442466 C18.666496,46.9535436 19.5580949,47.7035761 20.5284713,48.3830409 C21.4332816,49.0165959 22.3723201,49.5648059 23.3360285,50.0293561 L23.6436247,50.1741632 C25.9677413,51.2401315 28.473549,51.8495515 31.0148989,51.9766529 L31.6273292,51.9985676 L32.125743,52.0014224 L32.3724325,51.9979252 C35.1229486,51.9444573 37.8456792,51.3257073 40.3563753,50.1741632 L40.6639715,50.0293561 C41.6276799,49.5648059 42.5667184,49.0165959 43.4715287,48.3830409 C44.4419051,47.7035761 45.333504,46.9535436 46.1442466,46.1447337 C46.9535436,45.333504 47.7035761,44.4419051 48.3830409,43.4715287 C49.099158,42.4488075 49.706237,41.3823561 50.2067119,40.2859773 C51.2484921,37.9901645 51.8462816,35.5195278 51.9751959,33.0138231 L51.9956347,32.4764006 C52.0006229,32.2738233 52.0025453,32.0710826 52.001389,31.8682522 L51.9979252,31.6275675 C51.9439158,28.8491978 51.3131175,26.0991792 50.1390153,23.567415 C49.6516594,22.5222394 49.0670967,21.5054042 48.3830409,20.5284713 L48.3207137,20.4305443 C47.0286208,18.6077012 45.4067294,16.9720012 43.4715287,15.6169591 C42.5667184,14.9834041 42.3468225,13.7363125 42.9803775,12.8315022 C43.6139325,11.9266918 44.8610241,11.7067959 45.7658345,12.3403509 Z M32,6 C33.1045695,6 34,6.8954305 34,8 L34,30 C34,31.1045695 33.1045695,32 32,32 C30.8954305,32 30,31.1045695 30,30 L30,8 C30,6.8954305 30.8954305,6 32,6 Z" id="Shape" fill="#000000"></path>
    </g>
</svg>