<?xml version="1.0" encoding="UTF-8"?>
<svg width="600px" height="600px" viewBox="0 0 600 600" version="1.1" xmlns="http://www.w3.org/2000/svg" xmlns:xlink="http://www.w3.org/1999/xlink">
    <title>assets/icon</title>
    <g id="/assets/icon" stroke="none" fill="none" fill-rule="nonzero">
        <g id="KIA_logo3" transform="translate(0, 225)" fill="#000000">
            <path d="M348.085191,130.820654 C348.085191,131.959201 348.445155,132.61836 349.105089,132.61836 C349.645035,132.558436 350.124988,132.318742 350.544946,132.019125 L537.546245,10.7938802 C540.706028,8.58791596 544.491461,7.4536205 548.345165,7.55801105 L589.441056,7.55801105 C595.740426,7.55801105 600,11.7526562 600,18.0446239 L600,96.4245644 C600,105.892478 597.90021,111.40544 589.50105,116.439014 L539.646035,146.400765 C539.149027,146.745428 538.569362,146.952207 537.966203,147 C537.366263,147 536.766323,146.520612 536.766323,144.78283 L536.766323,53.3395665 C536.766323,52.2609435 536.466353,51.5418615 535.746425,51.5418615 C535.219608,51.6023979 534.720559,51.8100907 534.306569,52.1410965 L397.640236,140.827879 C394.520548,142.925202 390.860914,144.063748 387.141286,144.003825 L296.550345,144.003825 C290.190981,144.003825 285.991401,139.80918 285.991401,133.457289 L285.991401,20.5014875 C285.991401,19.6625584 285.631437,18.8835529 284.911509,18.8835529 C284.38629,18.9501486 283.888824,19.1571822 283.471653,19.4827879 L193.30067,73.5337867 C192.40076,74.1330217 192.160784,74.5524862 192.160784,74.9719507 C192.160784,75.3314917 192.340766,75.6910327 192.940706,76.3501912 L257.374263,140.648109 C258.214179,141.487038 258.814119,142.146196 258.814119,142.865278 C258.814119,143.464513 257.854215,143.943901 256.714329,143.943901 L198.520148,143.943901 C193.960604,143.943901 190.420958,143.284743 187.961204,140.827879 L148.905109,101.877603 C148.605822,101.520088 148.17115,101.303008 147.705229,101.278368 C147.281769,101.297926 146.869659,101.421414 146.505349,101.637909 L81.2318768,140.827879 C77.2722728,143.224819 74.5725427,143.883978 70.6729327,143.883978 L10.6189381,143.883978 C4.19958004,143.943901 -1.13686838e-13,139.689333 -1.13686838e-13,133.397365 L-1.13686838e-13,56.5155121 C-1.13686838e-13,46.9876753 2.09979002,41.5346366 10.5589441,36.5010625 L60.7139286,6.41946451 C61.107377,6.16208372 61.5637843,6.01703387 62.0337966,6 C62.8137186,6 63.2336766,6.77900552 63.2336766,8.51678708 L63.2336766,111.465363 C63.2336766,112.543986 63.4736526,113.023374 64.2535746,113.023374 C64.7935206,112.963451 65.2734727,112.723757 65.7534247,112.424139 L235.176482,10.6141096 C238.416158,8.39694008 242.375762,7.31831704 246.335366,7.49808755 L337.526247,7.49808755 C343.825617,7.49808755 348.085191,11.6927327 348.085191,17.9847004 L348.025197,130.820654 L348.085191,130.820654 Z" id="Path"></path>
        </g>
    </g>
</svg>