<?xml version="1.0" encoding="UTF-8"?>
<svg width="600px" height="600px" viewBox="0 0 600 600" version="1.1" xmlns="http://www.w3.org/2000/svg" xmlns:xlink="http://www.w3.org/1999/xlink">
    <title>assets/icon</title>
    <g id="/assets/icon" stroke="none" fill="none" fill-rule="evenodd" stroke-width="1">
        <g id="Created-with-Fabric.js-3.6.3" transform="translate(0, 147)" fill="#000000">
            <path d="M361.601478,187.745799 C366.154397,211.296369 353.82198,230.858023 343.574723,249.845272 C332.192424,267.511391 313.40685,282.694808 290.827175,280.42272 C240.158412,279.66323 190.637443,271.876863 144.712898,258.008193 C142.627738,257.440171 140.542577,256.106277 139.401159,254.210743 C138.45104,251.549337 139.783757,249.079399 141.677619,247.375334 C183.616765,213.376989 233.520332,197.619168 282.856378,181.089092 C301.259355,175.772663 320.810126,170.073297 341.489562,172.734703 C350.021503,173.877129 358.559821,179.767963 361.601478,187.745799 L361.601478,187.745799 Z M534.46575,87.0910412 C557.995543,106.461226 579.248877,132.864671 572.0369,164.769632 C560.272003,211.870774 509.042095,236.940325 468.244367,252.889614 C446.040915,260.299427 423.652539,267.900709 399.363926,270.179179 C397.846287,269.987711 395.378528,270.364265 394.995929,268.085795 L395.56345,265.430771 C430.09932,226.492551 456.281795,182.818687 479.250444,138.564037 C489.873922,118.619448 499.744958,98.113219 508.850796,77.9771617 C510.177137,76.4581818 511.509854,75.6986918 513.027494,75.1306699 C521.559435,75.8837776 527.636371,82.5341014 534.46575,87.0910412 L534.46575,87.0910412 Z M203.339706,36.9519394 L202.580886,39.7984312 C152.677319,96.5814745 119.850388,162.48478 88.7323954,228.005149 C82.6618362,233.704514 76.7761996,226.103233 71.2731612,223.633295 C43.5666703,205.405536 18.5192372,175.964131 25.7312145,141.02121 C37.304812,95.4454307 84.1730994,71.1353698 123.268265,54.6180588 C146.41546,45.8807331 170.519151,38.8538555 195.942806,34.8649376 C198.601864,34.8585554 202.013365,34.4820015 203.339706,36.9519394 Z M450.976432,46.0658189 C453.820413,47.5847989 457.23829,48.1528208 458.947229,50.9993125 C460.464869,54.2287404 457.42959,56.3157422 455.720651,58.4091263 C416.440562,89.1716607 371.472513,106.269758 325.547968,121.274472 C302.203097,126.973837 278.673304,137.230143 252.682128,131.530777 C246.605193,130.011797 241.108531,126.022879 237.690653,120.132045 C231.237496,102.28084 239.967113,83.6701452 247.555312,68.09741 C257.611269,48.5357569 275.453102,25.5532078 300.117937,25.176654 C353.248082,24.7937179 403.342948,32.7715535 450.976432,46.0658189 L450.976432,46.0658189 Z M516.630294,47.5847989 C556.860502,69.6163899 602.402449,108.35676 597.65823,160.014842 C592.155192,207.875474 547.563364,241.299414 507.715755,261.435471 C391.393129,317.082471 228.017294,318.786536 107.900568,270.172797 C67.2877627,253.27255 21.7458159,224.214081 4.6628034,180.527453 C-8.42843389,144.633574 7.50678383,107.220716 34.2695324,82.3426334 C90.2436585,31.4440417 161.591858,13.9757727 235.031595,3.90455289 C314.73319,-5.78373078 398.59873,2.76212681 469.946929,27.2636558 C485.888524,33.1544897 501.638819,39.6133454 516.630294,47.5847989 Z" id="Shape"></path>
        </g>
    </g>
</svg>