<?xml version="1.0" encoding="UTF-8"?>
<svg width="64px" height="64px" viewBox="0 0 64 64" version="1.1" xmlns="http://www.w3.org/2000/svg" xmlns:xlink="http://www.w3.org/1999/xlink">
    <title>location</title>
    <g id="location" stroke="none" fill="none" fill-rule="nonzero">
        <path d="M32,8 C41.4062732,8 49,15.8890384 49,25.5833333 C49,37.3889644 37.575427,56 32,56 C26.424573,56 15,37.3889644 15,25.5833333 C15,15.8890384 22.5937268,8 32,8 Z M32,12 C24.8377307,12 19,18.0647536 19,25.5833333 C19,30.9443476 21.3393371,37.4590238 25.0831678,43.5578571 C26.6380893,46.0908796 28.3348551,48.3646784 29.8587697,50.0019641 C30.5510944,50.745794 31.1770183,51.3234949 31.6805368,51.6931463 C31.7642327,51.7545905 31.842019,51.8083835 31.9129066,51.8543835 L32.001,51.91 L32.0870934,51.8543835 C32.157981,51.8083835 32.2357673,51.7545905 32.3194632,51.6931463 C32.8229817,51.3234949 33.4489056,50.745794 34.1412303,50.0019641 C35.6651449,48.3646784 37.3619107,46.0908796 38.9168322,43.5578571 C42.6606629,37.4590238 45,30.9443476 45,25.5833333 C45,18.0647536 39.1622693,12 32,12 Z M32,19 C35.3137085,19 38,21.6862915 38,25 C38,28.3137085 35.3137085,31 32,31 C28.6862915,31 26,28.3137085 26,25 C26,21.6862915 28.6862915,19 32,19 Z" id="Shape" fill="#000000"></path>
    </g>
</svg>