<?xml version="1.0" encoding="UTF-8"?>
<svg width="64px" height="64px" viewBox="0 0 64 64" version="1.1" xmlns="http://www.w3.org/2000/svg" xmlns:xlink="http://www.w3.org/1999/xlink">
    <title>distance</title>
    <g id="distance" stroke="none" fill="none" fill-rule="nonzero">
        <path d="M43,20 C50.1932837,20 56,25.9826774 56,33.3333333 C56,42.1826982 47.4474267,56 43,56 C38.5525733,56 30,42.1826982 30,33.3333333 C30,25.9826774 35.8067163,20 43,20 Z M43,24 C38.0430192,24 34,28.1655349 34,33.3333333 C34,37.1125406 35.682054,41.7580768 38.3782928,46.1140459 C39.5002307,47.9266179 40.7228634,49.5515006 41.8145083,50.714665 C42.2400305,51.1680655 42.6263002,51.5296179 42.9433893,51.7783174 L43.001,51.822 L43.0566107,51.7783174 C43.3736998,51.5296179 43.7599695,51.1680655 44.1854917,50.714665 C45.2771366,49.5515006 46.4997693,47.9266179 47.6217072,46.1140459 C50.317946,41.7580768 52,37.1125406 52,33.3333333 C52,28.1655349 47.9569808,24 43,24 Z M26.4142136,8.58578644 L36.3163097,18.4873418 C30.8060269,21.0762545 27,26.7664382 27,33.3333333 C27,36.122799 27.5864336,39.0596542 28.6285235,42.0000887 L14,42.0000887 C12.8954305,42.0000887 12,41.1045695 12,40 L12,27 L10,27 C8.27059647,27 7.37911637,24.9705752 8.4801695,23.6992001 L8.58578644,23.5857864 L23.5857864,8.58578644 C24.366835,7.80473785 25.633165,7.80473785 26.4142136,8.58578644 Z M43,28 C45.209139,28 47,29.790861 47,32 C47,34.209139 45.209139,36 43,36 C40.790861,36 39,34.209139 39,32 C39,29.790861 40.790861,28 43,28 Z" id="Shape" fill="#000000"></path>
    </g>
</svg>