<?xml version="1.0" encoding="UTF-8"?>
<svg width="64px" height="64px" viewBox="0 0 64 64" version="1.1" xmlns="http://www.w3.org/2000/svg" xmlns:xlink="http://www.w3.org/1999/xlink">
    <title>range_ev6</title>
    <g id="range_ev6" stroke="none" fill="none" fill-rule="evenodd">
        <path d="M5.99956318,52.4639766 C6.5926598,52.8067712 7.27811299,53 8,53 L14,53 L14,54 C14,55.1045695 13.1045695,56 12,56 L8,56 C6.8954305,56 6,55.1045695 6,54 L5.99956318,52.4639766 Z M30,45.002 L30,47.528 L29.9079644,47.6118891 C28.9648803,48.4917223 28.3057142,49.6719764 28.0829263,51.0001915 L8,51 C7.08226472,51 6.2822985,50.3754053 6.059715,49.4850713 C5.72270193,48.137019 5.46700278,46.6431399 5.29128957,45.0021089 L30,45.002 Z M30.0009336,14.0199828 L30.0006659,18.0208194 C26.7304127,18.0889267 23.4599461,18.3241386 20.1890077,18.7265033 C19.634508,18.7952354 19.1358765,19.0929727 18.8119311,19.5431418 L18.7201058,19.6826888 L14.931,26 L30,26 L30,35 L23,35 L8,33 L8.58219949,36.493197 C8.82329348,37.9397609 10.0748638,39 11.5413813,39 L18.5147186,39 C20.1060176,39 21.632141,38.367859 22.7573593,37.2426407 L23,37 L30,37 L30,43.001 L5.12125725,43.0014461 C5.04025657,41.7435092 5,40.4098559 5,39 C5,36.402932 5.1366938,34.0658609 5.41217134,31.9862335 C5.67327995,30.0145249 6.65444422,28.2360582 8.12888218,26.9689218 C7.84390122,26.9398066 7.56147675,26.8903692 7.28342,26.820855 L4.75746437,26.1893661 C4.31229737,26.0780743 4,25.6780912 4,25.2192236 L4,23.8471271 C4,23.3582879 4.35341304,22.9410978 4.83560101,22.8607332 L8.83560101,22.1940665 C8.88993244,22.1850113 8.94491914,22.1804604 9,22.1804604 C9.55228475,22.1804604 10,22.6281757 10,23.1804604 L10,25 L10.865,25 L15.2897304,17.6253788 C16.1945646,16.116782 17.7131305,15.0851759 19.4392669,14.7947599 L19.6996933,14.7567894 C23.1335278,14.3341815 26.5671773,14.0886336 30.0009336,14.0199828 Z" id="Combined-Shape" fill="#000000"></path>
        <g id="Group" stroke-width="1" transform="translate(28, 4)" fill="#000000">
            <path d="M4,50 L4,48 C4,46.8954305 4.8954305,46 6,46 L6,46 L6,9 C6,6.23857625 8.23857625,4 11,4 L25,4 C27.7614237,4 30,6.23857625 30,9 L30,46 C31.1045695,46 32,46.8954305 32,48 L32,50 C32,51.1045695 31.1045695,52 30,52 L6,52 C4.8954305,52 4,51.1045695 4,50 Z M21.037789,25.0400812 L12.3788384,35.3571288 C12.2276735,35.5372401 12.1448126,35.7648598 12.1448126,36 C12.1448126,36.5522847 12.5925279,37 13.1448126,37 L16.8928126,36.9995053 L14.3557346,44.477835 C14.2894958,44.6730649 14.3498744,44.8889353 14.5077883,45.0214703 C14.7193062,45.1989943 15.0346871,45.1714367 15.212211,44.9599188 L23.8711616,34.6428712 C24.0223265,34.4627599 24.1051874,34.2351402 24.1051874,34 C24.1051874,33.4477153 23.6574721,33 23.1051874,33 L19.3568126,32.9995053 L21.8942654,25.522165 C21.9605042,25.3269351 21.9001256,25.1110647 21.7422117,24.9785297 C21.5306938,24.8010057 21.2153129,24.8285633 21.037789,25.0400812 Z M24,8 L12,8 C10.8954305,8 10,8.8954305 10,10 L10,18 C10,19.1045695 10.8954305,20 12,20 L24,20 C25.1045695,20 26,19.1045695 26,18 L26,10 C26,8.8954305 25.1045695,8 24,8 Z" id="Combined-Shape"></path>
        </g>
    </g>
</svg>