<svg height="960" viewBox="0 0 960 960" width="960" xmlns="http://www.w3.org/2000/svg"><path d="m440.068825 230.242251c56.206528 1.063208 104.154392 5.588495 142.061867 14.438473 4.418599 1.031578 8.89818 2.35358 14.117272 4.081126 1.480396.490019 2.993906 1.003815 4.737526 1.605464.471935.162845 1.416153.490664 2.403249.833614l.540088.187663c1.168219.405953 2.287282.794988 2.648396.919769 26.180134 9.046364 59.043444 29.682258 100.273831 62.257178l.355946.281462.287308.013802c1.785888.093678 3.579348.308068 5.369614.647767l.488167.095756c15.181973 3.075426 25.12709 5.290861 30.938746 6.959021 10.901083 3.129015 19.924378 9.226633 27.018097 17.270539 4.737263 5.371807 8.165054 10.983887 11.216772 17.402212l.027296.058903 1.267328.209231c6.353614 1.061989 12.58324 2.316747 18.688265 3.765661l1.52366.366274c39.92455 9.720101 77.025216 26.457326 101.963171 50.922955 8.089654 7.936436 14.982392 16.496252 20.601059 25.673861 4.169851 6.811093 6.344681 14.67394 6.191025 22.709103l-.001508.023915.078155.1096c1.583227 2.259594 3.116486 4.747646 4.795352 7.673377l.390105.683034c1.750511 3.078881 3.084356 6.376614 3.966551 9.806705 5.53827 21.533534 9.343138 43.105061 11.404524 64.698192.989652 10.366663 1.510282 21.295969 1.571095 32.796347l.001218.567745.207499.487088c.089064.213434.177646.429649.265794.648839l.263193.666692c2.331927 6.01703 3.476652 12.500183 3.240252 19.236779l-.009738.211602c-.000084.040455-.000659.085659-.001345.142305l-.001115.093769c-.008177.699361-.009646.814582-.016385 1.202177-.01068.614303-.025462 1.206154-.047017 1.819956-.05844 1.664163-.160736 3.311085-.327805 5.027306-.471007 4.838426-1.394323 9.625192-3.00044 14.510622-.167102.508286-.341135 1.01552-.522291 1.52168-2.961892 8.275702-7.422411 14.169337-13.40929 20.051068-.668129.656395-1.359108 1.289121-2.071657 1.897007-4.874645 4.158635-9.710264 7.543034-15.012249 10.12234l-.529406.25177-.569248.988946c-18.752025 32.183723-47.85073 53.387244-82.346368 54.718798l-1.249172.03946c-.19541.004805-.390853.008177-.586312.010117l-.272917.002709-.731981.009738c-.173834.002267-.347681.003401-.521529.003401-2.014645 0-4.025301-.070776-6.029688-.211889l-1.078785-.08328-37.925-1.566-.643213-.00333c-27.155622-.328826-51.366012-13.125426-69.873077-34.193101l-.06671-.076569-.08365.005006c-40.635323 2.216535-94.484778 4.693227-161.591405 7.433337l-1.962945.079657-21.797 1.385-.512791.766363c-20.316866 29.98562-50.391528 49.025354-84.846314 49.490901l-1.294097.008736c-2.346727 0-4.688324-.088667-7.021715-.265456l.903917.062456-43.204-1.664-.669554-.007495c-.076282-.000872-.152561-.001962-.228836-.00327l-.228813-.00458c-26.905801-.615547-51.625916-12.743699-70.897759-33.114446-10.754887-11.368143-19.612657-25.089054-26.263078-40.378937l-.27996-.646272-130.233-12.994-.204241.453604c-1.393661 3.048235-2.895469 5.964033-4.50689 8.735989l-.442197.752413c-4.782507 8.049326-10.56917 14.992566-17.630589 20.516524-9.106374 7.123673-19.92149 11.506768-31.725378 12.125226-.922104.048313-1.844413.07298-2.76624.074093l-.506465-.003849-.502445.004327h-37.4207795c-.2156887 0-.430989-.00171-.6458877-.005117l-.0638878-.00221-.6002693.008561c-15.4160915.107575-29.1755272-6.194597-40.3060238-16.554349l-.4559351-.428022c-8.3623356-7.91783-15.1354978-18.046187-20.6483219-29.914789-9.52939387-20.515905-15.43115696-46.795955-16.88772293-74.581777-1.39060663-26.527564 1.39018336-52.106979 8.02837849-73.001572l.03089454-.093052.1192842-1.193165c2.0266466-19.817993 5.8161339-37.274831 11.5767136-52.455854l.3626047-.945852c3.5815308-9.247591 6.1505666-16.505304 7.6529824-21.466992l.0314151-.105137-.0448231-.518169c-.5828815-7.491668.9399287-15.263613 4.9171601-22.426278l.3800667-.669688c18.9041333-32.599502 31.5501402-54.252426 39.5167096-67.532871l.6908289-1.150142c3.3938267-5.642723 5.8859006-9.670591 7.6117824-12.304638l.1902754-.291214.1250823-.353782c1.5080308-4.179047 3.5201376-7.516004 5.903341-10.629283l.3129462-.404862c1.4899394-1.909291 2.9512648-3.471137 4.4935822-4.938426 1.6963411-1.61382 3.3964989-3.016578 5.2975474-4.457377 2.4775987-1.877766 5.4453843-3.915945 8.9769669-6.205905 6.0188-3.90273 13.852569-8.638092 22.141736-13.402097l1.042142-.597646c1.439215-.823617 2.881367-1.641809 4.358986-2.472746l1.293782-.725545c3.862056-2.159887 7.635222-4.217601 11.187066-6.098442 27.811531-14.727297 74.482797-22.925949 155.856185-27.941573 48.807566-3.00836 96.835033-4.383296 141.412462-3.540065zm60.399459 435.448028-24.516302 1.554422c-4.378825 9.742634-9.545166 18.387574-15.409329 25.702362 15.354392-3.103464 29.175612-12.912488 39.925631-27.256784zm-98.968284-179.690279c-27.178085.000032-50.910872 20.772112-63.628748 51.657051-.014394.034954-.028747.069858-.043086.104775l.043086-.104775c-.364402.884937-.71976 1.778176-1.065898 2.679467-.040298.104931-.080453.209924-.120484.315027l.120484-.315027c-.356476.928212-.703172 1.864964-1.039893 2.809981-.040435.113482-.080779.22723-.120978.341098l.120978-.341098c-.181771.510145-.360635 1.022698-.536562 1.537617l.415584-1.196519c-.174342.493843-.345965.989925-.514842 1.488207l.099258-.291688c-.139364.407904-.276885.817292-.412547 1.228144l.313289-.936456c-.171061.504727-.339304 1.011711-.5047 1.520912-.09882.304231-.196694.609478-.293545.915509l.293545-.915509c-.152247.468716-.302081.939311-.449481 1.411753l.155936-.496244c-.178981.565548-.354466 1.133774-.526416 1.704622l.37048-1.208378c-.149515.47922-.296525.960339-.441006 1.443326l.070526-.234948c-.288858.958967-.56774 1.925334-.836462 2.898846-.032298.11701-.064333.233694-.096221.35048l.096221-.35048c-.149027.539885-.294929 1.081968-.437676 1.626203l.341455-1.275723c-.136618.50034-.270555 1.002551-.401788 1.5066l.060333-.230877c-.121782.464307-.241267.930181-.358436 1.397594l.298103-1.166717c-.128203.492412-.253825.986576-.376842 1.482462l.078739-.315745c-.133957.534385-.264887 1.070783-.392759 1.609152l.31402-1.293407c-.127348.513345-.251906 1.028534-.373647 1.545531l.059627-.252124c-.234115.985671-.457984 1.97795-.671429 2.976587-.024305.113719-.048381.227071-.072322.340505l.072322-.340505c-.119401.558638-.23554 1.119265-.348386 1.681839l.276064-1.341334c-.114907.544432-.226718 1.090739-.335406 1.638882l.059342-.297548c-.211237 1.053082-.410934 2.112982-.598887 3.179413-.013678.077607-.027252.155011-.040764.232448l.040764-.232448c-.173086.982068-.336211 1.969675-.489218 2.962595-.021272.138044-.042246.275514-.063026.413086l.063026-.413086c-.095761.621426-.187558 1.244933-.275352 1.870466l.212326-1.45738c-.085965.569127-.168608 1.139984-.247899 1.712529l.035573-.255149c-.147413 1.050312-.283541 2.106337-.408199 3.167812-.012243.104248-.02435.208338-.036348.312479l.036348-.312479c-.06366.542067-.124328 1.085555-.18198 1.63043l.145632-1.317951c-.066175.574435-.128993 1.150455-.188424 1.728019l.042792-.410068c-.051967.491143-.101484.983411-.148532 1.476781l.10574-1.066713c-.051666.502096-.100771 1.005359-.147298 1.509762l.041558-.443049c-.057866.606807-.111997 1.215279-.162361 1.82537l.120803-1.382321c-.05351.580109-.103609 1.161726-.150268 1.744809l.029465-.362488c-.049825.603574-.095964 1.208732-.138382 1.815428l.108917-1.45294c-.04545.567981-.087635 1.137353-.126529 1.708078l.017612-.255138c-.07583 1.084595-.139772 2.174106-.191638 3.268272-.005577.117657-.010994.234928-.016273.352252l-.058681 1.467605c-.017558.501954-.032576 1.00485-.045037 1.50866-.00284.114904-.005558.230243-.008142.345629l.008142-.345629c-.013946.563821-.024689 1.128789-.032205 1.694868l.024063-1.349239c-.013207.589729-.02291 1.180703-.029081 1.77288l.005018-.423641c-.008712.656185-.013087 1.313863-.013087 1.97298l.009169 1.651782c.000571.051382.001169.102756.001793.154121.005544.456262.013187.911977.022916 1.366954l-.022916-1.366954c.007907.650836.02008 1.300208.036482 1.948064l-.013566-.58111c.011398.533049.025658 1.065086.04276 1.59608l-.029194-1.01497c.013323.526232.029435 1.051465.048317 1.575668l-.019123-.560698c.017351.538732.037626 1.076392.060805 1.612948l-.041682-1.05225c.02041.566614.044056 1.132027.070912 1.696201l-.02923-.643951c.023829.551624.050727 1.102081.080669 1.651338l-.051439-1.007387c.023762.499173.050038.997376.078808 1.494586l-.027369-.487199c.064398 1.181305.142879 2.357059.235208 3.526927.005866.074453.011856.149603.017903.224728.004322.053702.008597.106447.0129.15918l-.0129-.15918c.040935.508591.084489 1.016065.13064 1.522393l-.11774-1.363213c.049672.608723.103094 1.215839.160233 1.821302l-.042493-.458089c.043918.48182.090188.962603.138794 1.442326l-.096301-.984237c.052914.560702.109017 1.119986.168281 1.677815l-.07198-.693578c.050119.494647.102721.988167.157789 1.480534l-.085809-.786956c.057635.542497.118259 1.083619.18185 1.62333l-.096041-.836374c.061419.549159.125905 1.096883.193432 1.643137l-.097391-.806763c.058536.496816.119585.992437.183128 1.486836l-.085737-.680073c.153932 1.245213.323668 2.482786.508905 3.712293.013952.092604.028033.185431.042201.278212l-.042201-.278212c.074479.494346.151463.987389.230934 1.4791l-.188733-1.200888c.086811.568454.176937 1.135173.270348 1.700115l-.081615-.499227c.084627.523616.172074 1.045722.262317 1.566285l-.180702-1.067058c.084891.513411.172495 1.025355.26279 1.5358l-.082088-.468742c.090809.523827.184449 1.046091.280895 1.566759l-.198807-1.098017c.094583.534683.192119 1.067721.292581 1.599079l-.093774-.501062c.087228.470896.176751.940486.268552 1.408744l-.174778-.907682c.093615.495139.189772.988819.288449 1.48101l-.113671-.573328c.097735.498526.198052.995543.30093 1.491021l-.187259-.917693c.101912.508333.206514 1.015077.313781 1.5202l-.126522-.602507c.144597.696403.294252 1.389766.448906 2.080004.001572.006896.003146.013918.00472.02094l.525425.051996c9.475938 40.931293 36.532278 70.644497 68.58121 71.377709l1.21396.013877 7.524556.290501c7.04448-1.038593 13.792791-3.478378 20.101833-7.117847.291284-.167883.581274-.338261.870316-.511171.906034-.542157 1.802501-1.108868 2.689225-1.699827.264979-.176455.529684-.355623.793503-.536949.623432-.428618 1.242275-.869421 1.856015-1.322076l.068547-.050499c.273973-.202586.546925-.407535.818845-.614829l-.292734.221925c.565812-.426737 1.127666-.864035 1.6854-1.311726.029376-.023257.058652-.046784.087916-.070339.221498-.178185.441825-.357684.661426-.538741.092895-.077344.184309-.153133.275608-.229202l-.274071.227831c.209457-.172702.418252-.346823.626379-.522353l-.352308.294522c6.411957-5.342346 12.255588-12.069875 17.275862-19.918033.024505-.036758.048567-.074442.072609-.112151l-.072609.112151c.15539-.24292.309991-.486914.463795-.731973.01897-.029015.037575-.058701.056168-.088402l.372637-.599747c.076727-.124474.153246-.249209.229557-.374203l-.229714.373275c.146251-.237213.291762-.475403.436525-.714561l-.206811.341286c.114804-.188045.229136-.376678.342995-.565894l-.136184.224608c.143426-.236949.286118-.47485.42807-.713695l-.291886.489087c.161368-.268171.321785-.537515.481242-.808021l-.189356.318934c.163729-.275487.326474-.55223.488224-.83022l-.298868.511286c.150777-.255782.300697-.512604.449753-.770456l-.150885.25917c.303445-.521512.603388-1.047408.899765-1.577622l.278715-.500525c.203816-.369142.405896-.740279.606222-1.113388.523379-.974591 1.034648-1.962557 1.533644-2.963536.097227-.195269.194339-.391511.290979-.588247.181933-.5165.361744-1.036027.53941-1.55854.095198-.280251.189804-.561154.283792-.842908.086948-.260374.173215-.521293.258953-.782934.033025-.101065.066061-.202227.099017-.303497l.149863-.465798.100053-.308665c.019105-.059754.038183-.119544.057233-.179371.051398-.161465.102701-.323495.153796-.48578l.091746-.292511c.119481-.381971.23785-.765409.355102-1.150299l.325859-1.082805c.070957-.238826.141486-.478198.211586-.718112.057422-.196519.115005-.394958.172295-.593764l-.172295.593764c.102425-.350542.203935-.702241.304524-1.055087l-.132229.461323c.150908-.52368.29978-1.049908.446598-1.578647l-.314369 1.117324c.125506-.44025.249579-.882284.372208-1.326081l-.057839.208757c.118306-.426058.235278-.853745.350906-1.283043l-.293067 1.074286c.133563-.483365.265414-.968821.39554-1.45634l-.102473.382054c.135532-.503193.269218-1.008598.401043-1.516183l-.29857 1.134129c.133625-.500629.265431-1.003434.395403-1.508384l-.096833.374255c.123464-.475395.245296-.952702.365484-1.431896l.021035-.083811c.196936-.786678.389453-1.578444.577499-2.375186l.276671-1.189637.277772-1.232386c.070619-.318261.140534-.637278.209741-.957046l-.061012.281216c.239-1.09619.469674-2.201244.69188-3.314828.021486-.107661.042879-.215348.064193-.323114l-.064193.323114c.243525-1.220426.476878-2.451097.69987-3.691576.001484-.008046.002865-.015731.004246-.023417l-.004246.023417c.098643-.548744.19526-1.099408.289832-1.651954l-.285586 1.628537c.144604-.804886.284863-1.613955.42073-2.427106l.231536-1.416286c.016795-.105039.033517-.210144.050166-.315316.080288-.507176.158994-1.016652.235985-1.527653l-.235985 1.527653c.102993-.650607.203193-1.303747.300576-1.959368l-.064591.431715c.173464-1.151294.33823-2.310333.494172-3.476878.022493-.168006.044774-.336194.066872-.504536l.183294-1.433718c.072643-.583777.143089-1.169354.211321-1.756698.01422-.122721.028336-.245233.042354-.367829l.005676-.049103c.02155-.188665.042873-.377512.063966-.566538l-.03244.288965c.070337-.622819.138191-1.247601.20354-1.874302.00391-.03807.007895-.076373.011869-.114683l-.011869.114683c.130212-1.248722.250485-2.505063.360662-3.76867.002-.023369.004089-.047376.006175-.071385l-.006175.071385c.050772-.582295.099401-1.166134.14587-1.751481.071535-.900267.137921-1.804071.19916-2.711368l-.012295.181105c.073991-1.083558.140638-2.172112.199821-3.265516.031055-.572889.060005-1.146386.086906-1.721171.010033-.214725.019757-.428946.029188-.64331.005919-.134292.011725-.268653.017456-.403026.012183-.287625.023855-.575567.035008-.863839.0387-.999712.071213-2.003043.097481-3.010002.018923-.727406.03463-1.456131.047059-2.186692.00917-.536501.016524-1.07405.022092-1.612534l-.022092 1.612534c.02824-1.659889.039558-3.32926.033664-5.00749-.001159-.339695-.00306-.679435-.005669-1.019557-.00055-.071809-.001131-.143634-.001737-.215362-.006512-.760608-.01653-1.523101-.030108-2.287316l.001572.086686c-.009257-.531426-.020235-1.063686-.032949-1.596091l-.001174-.048011c-.005047-.210008-.010362-.420142-.015946-.630402l.003776.141959c-.014067-.541253-.029918-1.083338-.047561-1.62575-.049125-1.510708-.112105-3.027717-.189173-4.550568l-.105318-1.940168c-.003889-.067033-.007803-.13404-.011742-.20102-.19821-3.345796-.461206-6.660201-.787197-9.936991l-.116329-.480204-.181134-.750529c-.201729-.817556-.410533-1.630451-.62631-2.43854l-.328667-1.207647c-.203879-.735308-.413557-1.466528-.628955-2.193548-.168913-.570207-.341419-1.13799-.517408-1.703135-.622687-1.999521-1.288875-3.965828-1.996955-5.896723-.206191-.562327-.415922-1.121562-.629163-1.677737-.082349-.21473-.165161-.428899-.248493-.642608-.530207-1.359811-1.081621-2.701309-1.653489-4.023335-.54806-1.266941-1.114746-2.515696-1.699663-3.745809-.716905-1.507717-1.46115-2.987307-2.231777-4.437484-1.307442-2.46033-2.690677-4.835792-4.144942-7.119721-.727693-1.14287-1.47353-2.263326-2.236556-3.359978-.185536-.266651-.371922-.531668-.559314-.795269-1.756584-2.470956-3.601598-4.817435-5.527733-7.029152-1.105423-1.269304-2.237139-2.493788-3.394185-3.67199-.249644-.254205-.500694-.506486-.752912-.756589-.951255-.943281-1.918896-1.855377-2.902397-2.735469-.982663-.879354-1.981944-1.727397-2.996345-2.542399-1.650456-1.326052-3.341173-2.564781-5.06874-3.711534-1.234793-.819645-2.488741-1.592503-3.760361-2.31671l-.853059-.477083c-.185532-.10186-.371431-.20269-.557692-.302484-7.832623-4.196578-16.307055-6.561659-25.158863-6.723284zm483.421953 156.279697-1.777068.162297c-47.042917 4.319827-89.388335 7.675846-127.096828 10.073021 10.681596 10.497165 23.417573 16.592149 37.092186 16.592149h.464617l39.63593 1.636489c1.488397.146913 2.989796.221516 4.502683.221516l.856527-.011169.272917-.002709c17.852789-.438997 34.040438-11.266732 46.049036-28.671594zm-768.163055-14.969471c-2.657035 7.74994-5.925592 14.588751-9.849025 20.332605l6.721682-.000504-.002745-.032124c.560031.037486 1.121811.041851 1.684991.012343 9.498822-.497685 17.594078-10.536815 22.997822-26.358442l-19.127522-1.907123c-.74047 2.74384-1.54932 5.398503-2.425203 7.953245zm-50.7164452-150.290969c-8.8808901.465021-16.5303058 9.296428-21.8877861 23.401108-.0281882.32829-.0557264.657734-.0827532.988091-5.820972 15.910367-8.8067774 38.19224-7.5240331 62.662195 1.3739517 26.209852 7.3557579 49.411391 15.6561819 64.676102 2.7233989 4.892725 5.6617906 8.88751 8.6347861 11.814854.1209927.119628.2424703.237223.3641927.353274l-.3641927-.353274c.2017637.198666.4036868.392415.6057129.581195l-.2415202-.227921c.3649483.347941.7320979.681994 1.1013234 1.001888.0266697.023639.053708.047014.0807452.070304l-.0807452-.070304c4.0252325 3.487428 8.2971732 5.292063 12.6531827 5.063974l.4514422-.031092c.0556041-.004749.1112097-.009838.1668162-.015268.1455618-.013756.2907532-.030081.435598-.04865l-.435598.04865c.1917923-.018728.3835948-.041509.5753777-.068365l-.1397797.019715c.1662485-.021312.3320404-.045579.4973686-.072779l-.3575889.053064c.2210501-.030955.4420741-.067323.6630262-.109137.0305924-.003333.0605961-.009046.0905842-.014855l-.0905842.014855c4.6955385-.888599 9.3586332-4.236592 13.5507234-10.354483.0513608-.073145.1018267-.147389.1521875-.22198l-.1521875.22198c.1128243-.164655.2253075-.331316.3374409-.499989l-.1852534.278009c.1747679-.258852.3482692-.521877.5204859-.78902l-.3352325.511011c.1415208-.212878.2824846-.428962.4228742-.648264l-.0876417.137253c.1374133-.213156.2740088-.428935.4097774-.64731l-.3221357.510057c.1311593-.204883.2618174-.412574.3919603-.623084l-.0698246.113027c.4255382-.68445.842953-1.394403 1.2519646-2.129043.0629918-.113512.126243-.228207.1893208-.343575l-.1893208.343575c.1075628-.193197.2145443-.388102.3209397-.584699l-.1316189.241124c.1148835-.21012.2291916-.422475.3429126-.637041l-.2112937.395917c.1341858-.247948.2674392-.498589.3997499-.751891l-.1884562.355974c3.467048-6.541537 6.388482-15.13809 8.4375563-25.109468l.05333-.239868c2.039068-10.054843 3.196988-21.475956 3.273483-33.679174-.360123-10.084008-.782343-17.237342-1.267564-20.698673-1.762452-12.572479-3.7535298-24.020796-5.9299212-34.303013-7.25632-24.8927-19.1543786-41.244822-31.756013-40.584976zm817.6337842 82.980743c-6.050117 0-16.623376.461544-31.592939 1.386974-.090949.005623-.181971.010002-.27304.013137l-129.668686 4.462551-25.141572 1.137338-.000428-.263338-.597893.027591c-50.590567 2.245436-81.270161 3.37663-92.358713 3.399253l-.333327.000346c-14.266105 0-17.673079.982608-27.332146 7.832564-.977317.693088-2.924595 2.057894-4.936075 3.466658l-.67163.470354c-2.350327 1.645912-4.65106 3.256714-5.46389 3.835542-.667802.475552-1.297666.928219-1.907085 1.37089-5.258475 3.819668-9.919042 7.586322-16.32692 13.296495-1.215232 1.082914-2.331662 2.072139-3.366178 2.979776l-.760791.665619c-6.340661 5.530943-9.523798 7.869039-13.924244 10.14953-6.533402 3.385875-13.413736 4.76872-22.89425 4.76872-4.452912 0-9.913921-.111423-16.393062-.333738l-.097805.628546c-.019715.127619-.039532.255172-.05945.382658l-.075509.476024c-.010129.063924-.020285.127837-.030467.191739l-.072845.458613c-.065186.403859-.131391.807033-.198613 1.209513l-.052107.303307-.043.259-.026169.156186c-.085117.499572-.171804.99806-.26006 1.495444-.119821.675679-.242648 1.349553-.368362 2.021337-.024557.13085-.049226.262005-.074005.39308l-.219648 1.145371c-.256651 1.318618-.524504 2.628956-.803489 3.930626-.138686.646718-.280061 1.291369-.424177 1.933833-.595323 2.654314-1.237607 5.271691-1.926091 7.848355-.086716.32423-.1742.648251-.262417.971619-.127382.467243-.256305.932864-.386752 1.397104-.269301.958088-.544961 1.910138-.827078 2.856126l72.754194-4.616586c.075451-.004787.150955-.008719.226496-.011793 85.363388-3.474683 149.369902-6.524649 191.954793-9.145732 42.63055-2.623893 91.436264-6.518678 146.499269-11.692434l-.108076.009802.501668-.052838c4.80602-.526404 8.390005-1.243235 10.275748-1.921339l.189-.070001c1.918658-.732671 4.517425-2.379996 7.892721-5.239917l.112863-.096905.10576-.104614c.963456-.973876 1.741297-1.890541 2.342073-2.731739l.193713-.277579c.48737-.715348.784783-1.285709.917447-1.656082 1.127914-3.148913 1.524298-6.488511 1.576054-10.956026.001309-.120542.001309-.120542.002564-.251257l.001598-.197383c-.959366.677322-1.859518 1.236704-2.739554 1.690973-1.329977.686527-2.661268 1.176124-4.226594 1.396318-3.240663.455864-6.695207-.408255-9.335387-3.263628-.427156-.461973-.757234-.821247-1.051251-1.21167l-.115829-.158148c-.913557-1.283552-1.541173-3.068826-3.882322-9.741773-.393225-1.120806-1.403279-4.040875-2.452818-7.077942l-.300444-.869463c-1.101912-3.18905-2.186813-6.330667-2.590897-7.490634-.167166-.47987-.330566-.947974-.490819-1.406044l-.238097-.679797c-.132395-.377388-.132395-.377388-.264671-.753729-.941379-2.677022-1.74698-4.599199-2.477573-5.9517-.528679-.97871-.922532-1.499443-1.185873-1.727488-.073563-.063703-.132911-.09418-.426023-.171536-.695939-.183668-1.822059-.296059-3.50882-.296059zm-758.996765-.838775c.231207 4.407839.336333 8.781129.318204 13.097324.072332 2.07025.142517 4.257437.210637 6.559893.073221 2.474832.14319 5.061292.212262 7.816933.044982 1.794553.145047 6.19974.245139 10.566134l.020691.901969c.013983.609071.027893 1.213796.041577 1.806896l184.805554 18.424476c-.009465-.052926-.018905-.105865-.02832-.158816-.017275-.107807-.036228-.215028-.055076-.322298-.231875-1.309192-.446294-2.626268-.644822-3.95037-.085899-.572806-.168742-1.146467-.248597-1.721406-.020944-.162289-.043214-.324356-.065245-.486518-.049353-.351859-.096056-.704521-.141634-1.057651-.032364-.262197-.065532-.524067-.098079-.786176-.041375-.321835-.080402-.644238-.118491-.967018-.025014-.223335-.050946-.446917-.076426-.670666-.146573-1.276601-.277216-2.559391-.39298-3.847647-.018327-.214437-.037152-.428438-.055566-.642577-.024993-.28044-.048371-.561048-.071042-.841907-.023272-.298187-.046588-.596861-.069103-.895793-.022729-.292241-.043941-.584635-.064387-.877293-.023783-.349492-.047124-.699149-.069368-1.049145-.026089-.402042-.050191-.805083-.072837-1.208601-.024238-.439585-.047179-.878991-.068389-1.318899-.007356-.145293-.014153-.29046-.020761-.435686-.019284-.430292-.037247-.86124-.053545-1.29265-.012005-.312087-.02289-.623999-.032905-.936172-.010078-.319045-.019435-.638784-.027876-.958766-.006425-.23939-.012205-.478435-.017474-.717626-.010031-.458428-.018272-.917465-.024625-1.376973-.002028-.1444-.003834-.288806-.005453-.433264-.000676-.062379-.001342-.124778-.001973-.187185l-.008562-1.693642.002572-.719443-183.376921-30.605926c.018618.328559.036559.657392.053821.986489zm752.381686 9.838775c5.800536 0 6.968794 2.385304 10.369525 8.146182 2.267154 3.840584 5.456926 10.063085 9.569317 18.667503-52.129763 3.289668-98.045566 5.822867-137.747409 7.599595s-99.452707 3.972302-179.252591 6.58672c13.493444-12.286223 22.578941-20.231075 27.256492-23.834556 7.016325-5.405222 11.518904-8.072034 26.545535-8.072034 15.026632 0 237.458595-9.09341 243.259131-9.09341zm-408.108577-89.089018.385777.659671c11.410334 19.677527 18.856838 44.827757 21.77628 73.818584l.045996.477234.158789 1.648622c.063311.687098.124091 1.376218.182419 2.068339.01687.200302.033433.39954.049683.597677.042457.517535.083522 1.036625.123279 1.558354.021481.283352.021481.283352.042651.567729.042081.567798.082477 1.13711.121346 1.710229.012643.187252.012643.187252.0252.375591.097375 1.465303.183606 2.939544.258643 4.422261.033123.654499.063863 1.308573.092326 1.964573.009971.231775.009971.231775.019726.464294l.030381.754824c.014284.367578.027813.734964.040585 1.102154.002253.062864.004429.125978.006584.189128.004732.139955.004732.139955.009441.28161.021071.636508.039893 1.273679.056515 1.913257.00736.288013.009826.387142.014334.576224.013717.574417.025591 1.149725.035673 1.728573.003815.224035.003815.224035.007416.448974.009297.589533.01663 1.179338.022044 1.773582l.000435.084691c.000527.060291.001034.120575.00152.180853l.000485.023317c.000209.026349.000454.057374.00076.096155l.000817.153663c.002988.424623.00496.848923.005916 1.272889l-.006733-1.426552c.00568.740328.008263 1.479832.007752 2.219046-.000821.561367-.003014 1.12273-.006989 1.683473-.000041.073293-.000588.146602-.001165.219913-.000785.094055-.001309.156757-.001759.209056l-.001322.146633c-.000494.05244-.001103.115422-.002017.209897l-.002498.194021c-.004695.434614-.010462.868847-.017297 1.302688l-.002002.097453-.004843.347769c-.001899.108922-.003866.217849-.005901.326783l-.001438.044297c-.005369.284485-.011198.568798-.017487.852937-.00466.239136-.010289.478889-.01625.718762-.004273.169023-.004273.169023-.008735.340882-.016152.618205-.034554 1.236764-.055355 1.860586-.007865.232585-.007865.232585-.016043.467076-.021599.615116-.045444 1.230456-.071769 1.851906-.009159.213812-.009159.213812-.018621.429949-.027064.61512-.056414 1.230799-.088381 1.853755-.009675.186769-.009675.186769-.019709.377603l-.012142.216194c-.025935.483222-.05322.965843-.081853 1.447846l.093995-1.66404c-.035223.667126-.073044 1.333331-.113537 1.999773-.018249.290153-.036322.579471-.054882.868562l-.04503.706983c5.612654.181947 10.358847.272715 14.230839.272715 11.49076 0 13.891622-1.244225 27.639607-13.495296 6.89604-6.145182 12.073253-10.329388 17.878759-14.54641.662244-.481043 1.342709-.970074 2.059765-1.480701 1.687294-1.201547 8.967334-6.280315 11.103458-7.795197 13.210586-9.3686 20.665037-11.518544 38.90162-11.518544 10.469646 0 41.679491-1.150639 93.290063-3.445898l.000298-17.223017 121.313386-3.494937.785186 16.513662 31.917343-1.097662.623587-.039595c14.677469-.900777 25.203734-1.36014 31.692959-1.376405h.343776c14.197302 0 20.96051 5.856718 26.46572 21.512024.135279.384885.135279.384885.270508.770348.240576.686063.487349 1.392266.742467 2.124613.41455 1.190012 1.508993 4.359176 2.612863 7.553924l.264766.76623c.326322.944315.648762 1.87715.949865 2.747655-.089783-9.787399-.549793-19.032727-1.380705-27.736572-1.437027-15.052943-3.815789-30.113781-7.136284-45.182514l.529286-.087417c-30.497443 5.10273-53.339057 8.403192-68.663328 9.912033-15.891502 1.564691-39.036161 3.19915-69.507492 4.911863-.24174.013588-.483894.018391-.725982.014401-47.524142-.783278-84.625347-1.641048-111.32891-2.574471-33.270204-1.162959-133.91098-11.537632-154.403313-14.95135l-1.116518-.185962c-.276572-.046075-1.763929-.292077-3.086933-.511555l-.485736-.080618c-.078777-.013082-.156241-.02595-.232055-.038548l-.432409-.071913c-.339373-.056495-.620729-.10349-.802104-.134072-1.738667-.293167-3.027868-.523172-4.19406-.752964-5.174891-1.019687-8.531575-2.210244-11.990625-4.525935-.331569-.221972-.660693-.452758-.989014-.693161-2.780296-2.035778-5.753091-5.877784-10.083663-12.875057zm-167.835402-206.204433c-5.385325.331936-10.585487.677322-15.607042 1.035949-58.077919 4.170645-95.113044 10.44941-116.161802 18.742699-2.909824 1.162311-5.507464 2.358933-7.829128 3.588345-2.029024 1.074448-4.128907 2.207741-6.263674 3.378773-8.989711 5.02329-18.477277 10.855687-26.497636 16.278159-4.713016 3.186416-8.661356 6.060681-11.422148 8.310385-.908905.740645-1.658507 1.389325-2.223659 1.91699l-.08068.076542c-.00076.003622-.001522.007242-.002284.01086l-.049934.227768c-.079475.347136-.174567.68703-.317669 1.061581-.124284.368876-.267875.725804-.427906 1.072442-.387351.839027-.823117 1.532433-1.322186 2.195945-.249484.331691-.444964.56853-.75743.934462-.102965.120583-.187288.219533-.258728.303933-.14383.196354-.297469.40378-.458829.619696-.126074.228743-.288441.53583-.488565.924817-.246595.479315-.541283 1.064505-.942302 1.86986-.07066.141906-.206855.416141-.364395.733545l-.139231.280553c-.312713.6302-.65632 1.323095-.736089 1.484015l-.012034.024314-.531119 1.068368c-2.625707 5.272438-4.827401 9.548924-7.698638 14.858011-8.9918707 16.626501-20.1828473 35.015435-34.6159313 56.132168l-.4551397.663271-.1245435 4.585341c-.0015193.385288-.0240592.810572-.0676195 1.275854-.0702117.812712-.1931195 1.644581-.3765159 2.580522-.6026738 3.2009-1.8123986 7.560064-3.6305799 13.076975 17.7897579-2.077969 31.6728483 10.476998 42.0007138 33.663991 5.44029 12.213942 10.113876 27.779501 14.061312 46.422151 3.47052 12.210582 5.852377 25.798644 6.967313 39.99919l44.300117-20.501619 133.941428 24.186566 7.30736 8.093577c1.744259-11.554214 4.714892-22.674364 8.829414-33.066751l.109601-.272372.022768-.175018c3.549294-26.304081 12.115964-48.717289 25.053581-65.344325l.481168-.613167c14.479398-18.295786 33.935015-28.818397 55.448976-29.30992 24.442983-.558441 46.567145 11.876257 62.817566 34.111099 1.547685 2.11764 3.039462 4.318934 4.474348 6.601038-1.421884-2.37354-2.980991-5.049992-4.709064-8.065145-4.007415-6.992163 1.478761-15.609638 9.509839-14.93769 44.087352 3.688721 76.032318 5.891918 95.710696 6.606063 39.589043 1.436718 73.206459 1.985748 106.089917 1.837398l3.719802-.019763c4.336767-.026509 8.664179-.065058 12.994303-.115209l3.71248-.045816c21.663292-.283719 43.480572-.854339 66.960234-1.657054 45.829042-1.566788 88.523886-3.680787 128.081755-6.341368-3.20208-4.486543-6.921182-8.806924-11.156522-12.962047-21.590708-21.181778-57.032507-34.18902-83.412675-40.611582-17.032098-4.146664-35.412703-6.553944-55.141486-7.221762.153743-.064899.304387-.129174.451932-.192826-1.936774-.359215-3.734547-1.28577-5.158221-2.676621l-2.252825-2.201048-350.651595 5.393018c-11.846114-27.412387-19.784564-45.410079-23.815351-53.993078l-.120949-.257209c-3.991762-8.477578-12.704318-24.482361-26.137668-48.014348 19.096274-1.589643 37.738131-3.190089 55.925571-4.80134 27.281161-2.416876 81.811137-4.548287 122.725743-2.79214 21.449741.920671 46.297896 2.058425 74.544465 3.413261-4.057593-1.365016-8.156419-2.648868-11.903056-3.523568-74.976002-17.504094-190.982588-14.915434-271.919553-9.926709zm272.931577 206.950231-.002082 4.317758c0 1.108155.300418 2.146145.824254 3.036968 3.148215.313845 6.31547.625762 9.483892.933359l3.789678.365779 1.79132.171397c.2984.02847.596714.056892.894925.085262l1.78791.169599 1.784701.168296c3.908651.367481 7.78875.724984 11.60474 1.068611l18.350375.000729c3.313708 0 6-2.686292 6-6l.000236-2.930043c-17.753047-.249082-36.289252-.703103-56.309949-1.387715zm317.304654-6.686357-.919964.062273c-13.12821.882774-26.59687 1.705549-40.406006 2.468338-.451105.907364-.675027 1.941133-.607293 3.024061.206859 3.307245 3.055603 5.820605 6.362849 5.613747l30.458239-1.905074c3.162092-.19778 5.625449-2.820027 5.625449-5.988298l-.000112-.745808zm-401.421 1.386.14741.199685c.114534.153113.224734.297733.330527.433803l.155377.197685c.2171.273077.39769.486378.532962.63478l.005886.005286.046796.031981c.876522.586795 1.848233.942055 4.41527 1.459864l.315798.062943c.951926.187572 2.079598.388759 3.652875.654038.398324.067164 1.321761.22055 2.271739.378051l.517805.085824c1.028889.17049 1.981485.328111 2.210511.366264l1.116465.185954c6.129307 1.021052 20.051501 2.724063 37.292058 4.618702.400902-.804453.626234-1.711554.626234-2.671283l.000232-2.772083c-14.424065-.875009-32.089423-2.148249-53.000991-3.819582zm-88.649122-19.273258-1.048981.012612c-15.827585.361608-30.229402 8.448939-41.283637 23.099448 12.61949-8.420084 27.022424-13.195225 42.54933-13.195225 10.739795 0 21.000499 2.311893 30.528581 6.578239 3.866459 1.731317 7.611825 3.784159 11.219643 6.134886.471765.307366.941511.620068 1.408864.937818-11.773122-15.005399-26.44217-23.229003-42.328217-23.557535zm-338.0540388-3.155714c-3.1694262.446574-6.4294481 2.612344-9.5658103 6.664516 3.5589516-1.460255 7.3461586-2.336578 11.3332069-2.545348 3.2864752-.172086 6.4853034.121093 9.5758955.83461-3.7187282-3.810675-7.5304056-5.491017-11.3432921-4.953778zm207.7651868-163.97487c26.913961 0 41.428322 11.2205 51.467863 27.641491 6.693028 10.947328 17.519255 34.081168 32.478682 69.401522l-2.770109 13.393049-37.706048-2.688825c2.865745-.317266 5.561871-.679472 8.051218-1.049066 5.98153-.88808 8.341968-4.122543 7.081314-9.703391-1.421526-4.861712-4.164705-11.125215-8.229538-18.790508-6.097249-11.49794-12.955197-12.914382-18.892323-12.914382s-23.966936 2.035855-34.817654 4.821645c-10.850718 2.785789-16.471478 16.496186-15.617642 24.043633.663723 5.866954 4.447129 8.438559 6.916581 9.632547l-153.95678-10.983004c30.976553-38.489971 48.943209-60.535736 53.899968-66.137295 7.435139-8.402338 13.640066-15.474791 21.292602-17.569111 7.652537-2.094319 63.887905-9.098305 90.801866-9.098305zm460.177387 71.49352 1.343763 1.149065c3.713112 3.177019 7.482907 6.433559 11.309306 9.769526.142484.124221.281417.252458.416631.384555l1.644925 1.606892c-2.673039-5.344135-6.385236-10.552397-12.631468-12.345297-.604529-.173522-1.298915-.361769-2.083157-.564741z"/></svg>