<svg height="960" viewBox="0 0 960 960" width="960" xmlns="http://www.w3.org/2000/svg"><path d="m406.856316 272.000021c6.744481.006858 12.689498.096958 17.356416.260129.185548.006487 1.269884.041249 2.45146.07928l.446084.014365.471821.01522c.701924.022666 1.365168.044209 1.820389.059346 3.176085.105611 6.295403.218578 9.603792.351446 9.220864.370318 18.282678.830697 27.095817 1.413386l1.208765.080856c.310479.021047.310479.021047.667286.045455l1.734589.120764c.149203.010561.298212.021153.453202.032224l.489087.035101 1.690344.123793.102094.007608 1.769319.134211.927066.072234 1.741502.139227c6.418219.522198 12.353561 1.105151 17.764499 1.760249 9.629862 1.16588 17.697741 2.299351 25.662244 3.681492l1.404725.246545.667007.119017 1.334531.241909c.222542.04076.445167.081746.667905.122964l1.338046.250134c12.059259 2.277102 24.635195 5.265231 42.737996 9.929866 17.392235 4.481541 33.899192 11.156778 51.062358 19.944963 4.649432 2.380683 9.215454 4.846804 14.207826 7.644098l.9397.527553c1.569798.883002 3.175647 1.794743 5.08579 2.885366.323163.184514 4.173934 2.38689 5.205557 2.974313 24.766155 14.102267 54.29865 32.996739 88.721325 56.731135l.711142.49073.718603.029135c18.939219.781623 33.35175 2.046105 43.828286 3.93994l.512069.093648c19.012258 3.517625 36.4841 8.084098 52.494116 13.383642 10.905685 3.609938 18.546036 6.60209 27.47161 10.423072 17.730844 7.590462 35.999642 23.230615 57.759184 47.497743 6.373344 7.107813 9.941577 16.195158 10.203693 25.587523l.002439.146297 1.787 3.492.238018.437552c14.574482 26.902196 22.411733 49.435117 22.588982 69.754613v.691856c0 12.317805-.921324 25.377113-2.740719 39.199672l-.059281.436307.080035.465918c1.232952 7.402787 1.763742 15.777659 1.795713 25.491364l.001543.944228c0 13.03272-4.195641 25.191369-11.937842 35.188457-6.191384 7.9946-13.997863 13.898793-22.882477 18.247963-8.473542 4.147944-17.344154 6.690343-26.802197 8.236432l-.761775.120638-.42356.608234c-14.736485 20.914701-35.926965 34.621508-61.288397 36.339134l-1.030445.063054c-3.234325.176829-6.467854.146201-9.687828-.088604l-.03977-.003818-35.946958.703299-.237822.003943c-22.200739.302112-41.893423-9.531765-57.566217-25.934586l-.106003-.112656-.786166.048273c-27.404746 1.644972-48.540348 2.796782-61.009077 3.296791l-.469325.018674c-17.962188.708992-41.04415 1.002619-69.328032.888495l-1.1924-.005233-.109716.124133c-19.263306 21.583335-44.887118 35.281371-73.213534 37.386682l-.63175.042185-.41546.045707c-1.090106.10754-2.193203.171347-3.307528.189629l-.66993.005491h-46.923933c-1.983128 0-3.932642-.144344-5.83859-.423114l-.069559-.011713-.629204-.056244c-37.525226-3.674419-69.501369-27.552666-88.274343-62.095906l-.164453-.30585-179.453-21.622-.129538.212858c-1.716548 2.773164-3.550963 5.421657-5.504043 7.934213l-.5356.681864c-11.987803 15.102655-28.241259 24.993324-47.383482 26.331879-1.418394.099183-2.838265.148616-4.257753.148445l-.031011-.000238-30.594524.764978c-.110758.002765-.221526.00507-.332301.006915l-.332348.004152c-15.0957354.125901-28.8336644-5.585303-40.2565189-15.231652-8.6470244-7.302221-15.8396483-16.737175-21.7464439-27.779281-8.5053397-15.8998-14.4140902-35.373978-17.2499713-56.279404l-.0354659-.272729-.1430415-.206906c-2.3562697-3.543099-4.2592338-7.676606-5.5698881-12.425577l-.375288-1.443181c-.8763563-3.58572-1.6728084-7.236011-2.3957325-10.955426-2.2010517-11.324317-3.68004315-22.991975-4.70047924-35.698001-.39300305-4.893503-.70878284-9.806556-1.00055405-15.295201-.11035417-2.075924-.212677-4.138955-.33581361-6.730819-.00750228-.157913-.22332327-4.745164-.28277463-5.972732-.17485303-3.610415-.31006366-6.023877-.45441455-8.018955-1.85683673-25.663392 7.18426088-51.26681 25.26855198-77.103939l.0354342-.049263 2.4040706-9.085224c2.1635036-8.173162 6.8596511-15.445669 13.4074731-20.778668l.4493037-.360596 42.5161526-33.622512.047851-.588686c1.0132314-11.095942 6.6167863-21.904911 17.376596-29.176402l.883728-.581764c18.864482-12.095449 45.288697-21.558638 80.114849-29.465154 29.337458-6.660428 75.666911-14.057717 116.140098-17.786376 33.390099-3.076119 69.824464-4.584927 100.115988-4.623597zm61.491324 238.999979c-42.149171 0-76.320941 42.276052-76.347624 94.438859l.001557.319162.004723.813102c.006122.597906.016698 1.194408.031688 1.789353.001511.060001.003067.119988.004679.180363.025661.961017.062837 1.918406.111362 2.871993.005568.1094.011284.218749.017152.328091.075379 1.404579.175384 2.800771.299511 4.188219.006965.077854.014006.155679.021123.233475l.005256.057285c.08676.943272.184664 1.88233.293578 2.817253l.035662.302654c.047434.398082.09686.795355.148351 1.192483.013056.100688.02624.201323.039459.301192.056236.424951.114747.848947.175513 1.271958.01088.075735.021832.151439.032854.227072.278406 1.91098.602926 3.801983.972067 5.671167.010269.051999.020573.103982.030928.155987.280319 1.408995.586007 2.805543.916507 4.189257.016428.068776.032917.137519.049391.20585.436881 1.813783.916307 3.60469 1.436899 5.371251l.069464.23463c.114089.383954.230122.766735.34792 1.147908.029283.094729.058684.189384.088403.284481.116577.373493.235004.745836.355017 1.116367.029419.090801.058948.181532.088825.272789.125138.382771.252233.764294.381161 1.14438.02188.064479.043815.128921.065849.193309.545691 1.598158 1.12568 3.173812 1.738769 4.725501.061057.154543.122436.308821.184151.462879l-.184151-.462879c.22348.565612.451357 1.12804.683575 1.687213l.035676.085752c.015345.036869.026035.062509.038513.092352l.053342.127362.3744.882151c.04914.11432.098431.228429.147825.34222.116083.267267.233477.5346.351883.801202l-.351883-.801202c.139085.320412.27899.638307.418662.951312l.163524.36427c.145109.321954.296334.652819.446038.976042l.055625.120047.030886.065832c.150462.322948.303791.647646.458731.971534.074325.155004.099653.207641.148852.309262l.12724.262281.307816.626374c2.095856 4.221183 4.452209 8.222936 7.041344 11.970955.496995.691496 1.253717 1.740561 2.23676 3.096845 12.93429 17.147535 30.964967 28.328427 51.104257 29.845849.223918.014733.447855.028501.672044.041066.632972.046759 1.267657.078037 1.904288.099668l5.176476-.002254c14.031074-.333982 24.498418-2.849672 32.832905-7.823149l.0145-.008145c1.055603-.63095 2.085601-1.30584 3.090933-2.026741l.322821.066976c8.898992-6.322716 15.874515-16.208152 21.570888-31.070785 2.394909-6.248654-.924319-46.728181-7.380329-75.060244l-.219092-.959112-.449963-1.953878c-3.921867-16.930808-8.436148-33.726633-14.753382-45.537561-.756867-1.415066-1.755856-3.179006-2.851338-5.049619l-.837429-1.419177-1.072508-1.788422c-1.555712-2.571621-3.13804-5.090454-4.393395-6.969566l-.454741-.673533c-.585028-.78751-1.175022-1.56187-1.771054-2.32241-.055229-.050531-.102716-.086959-.141958-.108451-9.437136-5.168521-15.565138-6.257707-26.548776-6.257707zm79.53761 171.085846c-.043094.263961-.086559.52344-.128595.76771l-.01301.075771c-.056996.32974-.115259.655394-.17493.977376-.051696.278936-.104364.554678-.158008.827126-.067131.340669-.135467.674676-.204954 1.001531-.038336.180365-.077183.359277-.116557.53676l.116557-.53676c-.060548.284871-.122405.56646-.185717.845001-.00968.042201-.019236.084001-.028823.125721l.028823-.125721c-.038505.169402-.077547.337676-.11716.504877l-.028892.120609c2.287403-1.652654 4.499931-3.448231 6.628738-5.377576-1.358208-.019265-2.727068-.038688-4.105177-.058822l-1.457934-.020949c-.017981.112867-.036102.225318-.054361.337346zm303.110979-12.507907-1.054479.072957c-19.86921 1.38408-47.403456 3.201221-75.651932 4.994723l-2.609378.165474c-1.740667.110253-3.48323.220364-5.226067.330225l-2.61426.164592c-2.178384.136982-4.355933.273491-6.529482.40932 6.911845 5.387864 14.461261 8.361798 22.183314 8.256716l38.141617-.745904c2.028162.234164 4.074253.299497 6.131384.187028 10.385409-.567799 19.685507-5.59258 27.229283-13.835131zm-444.180589-357.577939-1.804926-.000006c-1.048297.001342-2.104619.004532-3.168526.009574-17.798707.089094-42.205494.746296-68.281992 2.474752-1.976228.130993-3.962047.268138-5.955306.411655-.138392.010092-.276709.020087-.415001.030108-3.554139.257541-7.09206.532309-10.602032.824392l-.716616.059906-.107668.00864-.849123.072055c-.354077.030111-.708243.060433-1.062488.090968l-.502219.043509-.20317.017468.705389-.060977-1.00355.087133.284161-.025156-.71935.06317c-.766537.067283-1.533365.135567-2.300367.204862-.522975.047253-1.045011.094875-1.566208.142891-.991861.091377-1.987629.185097-2.986916.281085-10.259949.985534-20.890889 2.210171-31.473102 3.592932l-2.487375.328041-2.484366.333636c-3.390197.459349-6.768582.933695-10.121254 1.420358-25.490269 3.715329-47.762701 7.910132-61.40084 11.006373l-.448222.101652-.694447.15916c-29.605358 6.793895-51.499981 14.783801-65.195797 23.211885-.351585.219015-.69915.438171-1.041926.65795l11.012068 2.524926-.840251 5.550146-10.712647 8.470933-.009651.008773-52.6200337 41.611337c-1.7755361 2.665676-3.4338681 5.681388-4.97122 9.057612-3.6539751 8.024603-2.5780393 18.875643 4.0508297 32.973013 2.3501064 4.997884.2036585 10.954607-4.7942255 13.304714-4.997884 2.350106-10.9546071.203658-13.3047135-4.794226-1.3963539-2.969574-2.6146324-5.884635-3.6516685-8.743567-6.0678965 12.141078-8.7823976 23.356068-8.317369 33.548009.0158295.350806.0357505.700851.0593808 1.049976l.0158202.225945c.0844381 1.167022.1632656 2.399721.2432848 3.798576.0153328.27435.0308091.550205.0461535.828671l.0385874.705331c.0508956.951698.1031779 1.981547.1584923 3.113852.0308043.630575.0570393 1.175595.0929618 1.93317.0138255.292439.027743.586644.0417186.882851.0061138.129544.0125595.266377.0193258.410104l.04448.94576.0138458.302099.005.11.001.015.008.168.004.079.008.172.004.078.0012621.035034-.0455356-.968239c.1324506 2.818117.2679392 5.521664.408783 8.122935l.1973856-.526918c8.1740715-21.492922 22.0927525-36.12067 41.2143601-37.451363 19.1127583-1.330078 34.9293253 11.217775 46.0244813 31.360244 6.078303 11.034727 10.747844 24.423163 13.703283 39.053497 1.555697.862537 2.900921 2.151447 3.842074 3.812913 8.655513 15.280027 17.905531 24.094207 27.48069 27.04366 11.298176 3.480197 76.225265 15.066452 192.414646 34.269269-.018624-.517347-.035362-1.035661-.049214-1.554429l-.001654-.062577-.002218-.085481c-.000419-.016414-.00092-.036104-.001588-.062357-.029533-1.172203-.044328-2.346959-.044328-3.523509 0-1.160341.01439-2.318869.043124-3.475365.004031-.16224.008338-.324204.012926-.486126.01222-.431299.026444-.862492.042663-1.293382.005689-.149683.005689-.149683.011577-.299001.01989-.499826.042483-.999544.067755-1.498732.012181-.2379.012181-.2379.024901-.475665.088634-1.639144.206226-3.273227.35258-4.901177.015417-.1715.031184-.343251.047273-.514958.094904-1.012798.200897-2.022742.317979-3.030102.025811-.221021.025811-.221021.052082-.441815.054649-.457184.111615-.914057.17086-1.370335.024113-.185705.048582-.371158.073421-.556454.045955-.342831.093259-.685742.141855-1.028336l.069839-.485998c.070972-.487617.144615-.974868.220866-1.461343.026248-.167008.026248-.167008.05273-.333688.161066-1.011059.333491-2.019226.517125-3.023768.039294-.214294.039294-.214294.079074-.428622.090669-.48702.18396-.973107.279868-1.458244.023352-.117942.023352-.117942.046939-.236318.210336-1.053938.433016-2.103383.668032-3.148427.029205-.129665.029205-.129665.058578-.259265.614793-2.708369 1.312251-5.385842 2.09073-8.027686.050212-.170114.050212-.170114.100791-.340324.464026-1.558954.956205-3.105069 1.476164-4.637384.007963-.023448.013936-.041034.018914-.055687l.025914-.076173.018959-.055643c.166882-.489305.3366-.977201.509841-1.465623l.008284-.023345c.01777-.050024.026656-.075036.03555-.100028l.035601-.099908c.138631-.38853.279224-.776563.42157-1.163521.071496-.194033.071496-.194033.143477-.388078.550929-1.482666 1.127997-2.950496 1.731017-4.403123.065038-.15647.065038-.15647.130201-.312442.18913-.452126.38092-.90309.575164-1.352413.065495-.151317.065495-.151317.131274-.302551.380315-.873348.770216-1.741107 1.16945-2.602728l.035052-.075922.26363-1.330031c8.649965-42.736577 29.941069-73.313136 60.93723-78.566403l.971786-.155907c25.937185-3.927628 50.318948 11.122946 69.073469 38.336863 16.761511 24.321945 28.702516 57.868226 33.487123 94.549867 2.655684 20.360048 2.955513 40.481518.963966 59.286374 7.166994.10476 14.081181.190094 20.741806.256081l-.799421-.00775c.7154.007237 1.427894.014252 2.137481.021045 1.165626.010884 2.323173.021434 3.472874.031385.378333.003569.756349.006786 1.133513.009938 7.704677.064036 15.053341.101257 22.045701.111379.399729.000998.798658.001489 1.196423.001893.417689 0 .834018.000324 1.24906.000551l2.721198.000001c2.838297-.001419 5.614933-.00754 8.329839-.018358.175232-.000159.349844-.000875.5242-.00161 2.160389-.009657 4.28139-.021764 6.363037-.03686.546036-.003411 1.089215-.007576 1.629698-.011946 5.462422-.044709 10.648557-.109861 15.557517-.195946.23628-.003732.472878-.007945.708833-.012207.888547-.016439 1.767899-.033167 2.638066-.050589.990733-.019835 1.969559-.040568 2.936473-.062199.070192-.001275.140544-.002857.210833-.004443 1.288592-.029346 2.5557-.059994 3.801567-.092241.940548-.024159 1.869372-.049446 2.786214-.075648.485699-.014012.967286-.028116 1.445479-.042475.248139-.007348.495221-.014868.7414-.022458.602559-.018576 1.199717-.037565 1.791476-.056966.365786-.012044.729122-.024175 1.09037-.036462.379667-.012881.757124-.025976 1.132307-.039246.616544-.02182 1.22743-.044107 1.832069-.066862.469646-.017672.935976-.035648 1.398589-.053908l1.040946-.041837c.065821-.002691.13187-.005399.198146-.008125 35.161929-1.461346 161.459774-9.509436 204.007874-12.650538.000222-.007985.003706-.016675.007189-.025367 6.008799-.437264 10.237789-.764528 12.160908-.94521.099109-.009244.185536-.017606.268951-.025787 10.411966-1.021147 19.989925-3.614541 25.969728-7.548144 5.24066-3.44965 8.899743-8.399205 8.899743-15.521344 0-.250433-.000396-.499418-.001188-.746955-.034476-9.934461-.755929-17.673773-2.014375-22.81378l-.022392-.103233c-.147753-.587759-.30354-1.146149-.467361-1.675169.301016-1.963737.582209-3.90707.843576-5.829998.012289-.088266.024115-.175561.0359-.262814l-.018878.13046.17168-1.278585.181549-1.403577c.039889-.313765.07924-.626976.118052-.939632l.021719-.181206.17408-1.429805c.063666-.535357.125733-1.069068.1862-1.601132l.00972-.087063.023-.204.038-.344.008-.069v-.003l.004-.034.065421-.589465.007579-.074535.02-.184.053889-.495437.040111-.388563.107654-1.031488c.096432-.948107.187633-1.890709.273609-2.827797.080393-.876249.156218-1.747678.227477-2.614279.096404-1.168325.184138-2.327291.263594-3.477737.10651-1.546958.198365-3.077821.275262-4.592761l.004404-.094938.055055-1.138364c.018711-.409921.036316-.818661.052813-1.226221l.030132-.809415.018699-.485505c.030056-.860613.055116-1.71589.075184-2.565826.019855-.838136.034768-1.670943.044839-2.498765.01046-.860648.015705-1.716096.015705-2.565904l-.002427-.352-.000093-.093189-.006738-.381858c-.182563-8.240854-3.06584-19.073932-8.717894-32.136709-1.586742 3.765213-5.659599 6.025458-12.219541 6.780182-5.414209 1.01676-10.021985 1.01676-13.823327 0-6.664996-1.782713-19.137518-9.455857-21.550333-9.03905-6.715526 1.160089-120.225455 6.29818-132.620404 6.29818-12.394948 0-22.831797 9.735168-32.193177 9.735168h-70.212973c-42.367343 0-59.748704-4.100578-68.329267-9.370858-6.46179-3.968906-18.010899-20.860635-22.892584-27.168656-2.798379-3.616012-7.754271-10.124545-14.867676-19.525598 72.804961 13.321421 121.021032 21.062515 144.648211 23.223281 35.44077 3.241149 81.788223 8.677071 122.030882 8.677071 26.828439 0 55.720737-2.594439 86.676895-7.783317l18.467496-15.553271.511523-3.398376.499427-3.317021-.416628-.464037c-17.819297-19.800524-32.579818-32.243992-42.969001-36.820469l-.333617-.144899-.070181-.030574-.172-.073-.007-.003h.001l-.012-.005-.0125-.005135c-.010527-.004504-.021082-.00902-.031665-.013548l.044165.018683.011.005-.055165-.023683.304346.130257c-1.376649-.589335-2.711136-1.153583-4.026156-1.700146-10.133511-4.199546-31.519312-12.375204-61.85768-18.463172l-.922082-.183838c-.475886-.094263-.953943-.188004-1.434162-.281199-.462672-.089961-.925905-.178913-1.390217-.267185-.621645-.118183-1.245225-.235148-1.870743-.350881-.197047-.036457-.396644-.072686-.598791-.108686-.302648-.053729-.611843-.107121-.927341-.160046-.045189-.008092-.090806-.015739-.136543-.023376l-.389411-.063471c-9.724534-1.580753-25.173338-2.73493-45.880621-3.374009-.981263-.030303-1.972655-.059363-2.976164-.087337-18.368513-12.817225-35.33975-24.269217-50.913713-34.355976l-1.069532-.692006c-10.088491-6.519487-19.580669-12.458767-28.474138-17.816731-.86753-.523053-1.72951-1.040233-2.58588-1.551933-.738558-.440988-1.472751-.878127-2.202702-1.311149l-.920022-.545155c-.294591-.1742-.588496-.34773-.881715-.520591-.567974-.334655-1.133126-.66685-1.695662-.996505-1.486298-.87109-2.954598-1.724476-4.404962-2.560336-.639681-.368639-1.276162-.73406-1.909079-1.096023-.347866-.198945-.694825-.396939-1.040727-.593902l-.310933-.177116c-.11198-.063813-.22347-.127375-.337255-.192276-.607335-.346415-1.280043-.730976-2.441592-1.395382-8.696113-4.974176-16.296102-9.149953-23.32324-12.705755-11.836596-5.919743-25.438143-11.707395-40.276356-15.530828-.49735-.128155-.990146-.254973-1.478522-.380478-.322118-.082693-.642178-.164833-.960299-.246388-.546551-.140346-1.088156-.279023-1.624387-.416066-10.663849-2.72282-19.125364-4.774015-26.76761-6.423304-.111848-.024391-.223802-.04842-.335639-.072373-12.069379-2.585023-22.77057-4.298058-37.472691-6.078032l-1.170642-.139361c-.070765-.008285-.141653-.016559-.212663-.024822-.407526-.047424-.819071-.094502-1.234567-.141232l.102229.011503c-.834726-.094147-1.678995-.186156-2.531454-.276073-.114545-.012067-.229932-.024185-.345592-.036277l.210075.021339-1.197052-.123263c-.892533-.091017-1.793122-.179809-2.700258-.266426l-.126516-.012073-.043174-.004238.042.004-1.293008-.121097c-.950392-.087771-1.907022-.173217-2.868192-.256393-.735933-.063686-1.474529-.126041-2.215023-.187092-.199635-.016479-.400818-.032954-.602564-.049369l-1.688274-.134965-.834402-.064955-1.696529-.128665-1.691058-.123853-.11095-.008611-.323631-.022553c-.100866-.0072-.201724-.014378-.302572-.021533-.037143-.002642-.072728-.005164-.108184-.007675l-1.688352-.117531c-.143342-.009797-.219608-.015009-.289604-.019777l-.181442-.012326c-.034647-.00235-.074521-.005053-.122371-.008298l-.641844-.043307-.543794-.035993-.616206-.041007-.955956-.06163c-.101445-.006539-.202795-.013056-.304051-.01955l-.995049-.062455c-.381183-.023839-.761617-.04737-1.141195-.070595l-1.136062-.068765c-10.130216-.606551-19.568724-.99616-26.26591-1.237282-.272587-.009814-.540632-.019382-.803999-.028708-.161019-.005703-.320289-.011315-.477778-.016838-1.961771-.067893-3.967586-.134307-6.028494-.199855-.433132-.013776-.755241-.02405-1.009224-.03223-.082662-.002679-.162687-.005273-.239643-.007784-.027675-.000873-.054315-.001743-.08015-.002588-.050943-.001703-.100501-.003335-.148611-.00493-.016681-.000515-.033537-.001075-.050088-.001626-.059764-.002026-.117695-.003971-.173214-.005853-.065929-.002224-.12885-.004397-.192091-.006609-.213803-.007475-.431706-.014805-.653661-.021986-.449146-.014529-.913069-.028385-1.391008-.041544l-.228092-.006209.110276.003037.117816.003172-.117816-.003172-.292341-.007859c-.137837-.00362-.276788-.007184-.416839-.010691l-.524447-.012769c-.042841-.001011-.085794-.002016-.128858-.003017-.547545-.012692-1.111275-.024578-1.689945-.035598-.596299-.011414-1.211127-.021906-1.843767-.03147-.430665-.006437-.868225-.012496-1.312562-.0181-.233092-.003015-.468821-.005838-.706736-.008538-.641093-.007202-1.295427-.013551-1.962318-.018948-.27916-.002312-.560449-.0044-.844355-.006322-.300692-.001997-.604239-.003851-.91013-.005513-.405295-.002224-.815493-.004086-1.230665-.005607-.390504-.001425-.784943-.002557-1.182776-.003378-.261485-.000535-.525417-.000941-.791194-.001211zm-316.7933487 183.041216c-.2810688.01956-.5608992.046011-.8394615.079276l.0120099.182512c-19.1325443 2.905403-32.1085792 38.356888-29.1607854 80.53466 2.1284153 30.453899 11.9899453 56.279279 24.5917946 68.365353l.4860606.440581c.0339717.030037.0679619.059974.1019704.089813.1229124.10626.2456461.212674.3684516.317647l-.3684516-.317647c.1973144.173122.3952467.342921.5937786.509363l-.225327-.191716c.1710254.146192.34219.28959.5134717.430171l-.2881447-.238455c.1771209.148491.3547189.294311.5327812.437435l-.2446365-.19898c.1778025.145932.3557311.288829.5337611.428665l-.2891246-.229685c4.4424904 3.570815 9.1739064 5.463749 13.9917853 5.311244.030811-.000778.061864-.001864.092913-.003034l-.092913.003034c.214995-.006806.430162-.017684.645484-.032669l.570736-.049167c.019658-.00202.039312-.004075.058962-.006162.170547-.018436.34127-.039298.511513-.062712l-.511513.062712c.191815-.020379.383286-.043961.574408-.070758l-.062895.008046c4.325362-.594872 8.340391-2.836745 11.933669-6.432649.05669-.056672.113246-.113736.169748-.171177l-.169748.171177c.298246-.298464.593586-.606255.885956-.923207 3.362298-3.650546 6.465923-8.697125 9.042671-14.864058.063853-.150789.126629-.302727.189076-.45529l-.189076.45529c.091492-.218967.182319-.439348.272471-.661128l-.083395.205838c.112628-.275161.224188-.552356.334668-.83156l-.251273.625722c.118748-.292131.236323-.586691.352697-.883652l-.101424.25793c.193936-.49011.384547-.98641.571782-1.488761l-.189928.504456c1.219059-3.205397 2.305189-6.692879 3.238833-10.415098.026155-.104277.053823-.207698.082971-.31025 3.215606-12.937355 4.540887-28.51254 3.372904-45.135278-3.025255-43.055448-21.631956-76.834593-41.5592307-75.447832zm54.3435937 136.281412.308123-.882273c-.12401.359708-.249478.71735-.376395 1.072894-.065783.185129-.13224.369473-.199107.553321-.048583.133135-.097037.265592-.145693.397749l-.033421.090872c-.111832.302699-.224786.604031-.33886.903976-.218533.574614-.441173 1.144321-.667909 1.708997-.012566.02978-.024724.059964-.036894.090133l.036894-.090133c-2.283998 5.688214-4.983597 10.866029-8.088217 15.407814l-.051818.006471c9.050062-1.175472 16.929243-8.220733 22.804553-19.171733l-12.709889-1.532764c-.164373.484781-.331498.966364-.501367 1.444676zm7.633546-49.191499-.001877 1.040484c-.044099 9.423017-.81266 18.561715-2.27122 27.147529l186.620239 22.485879 39.479508 4.757774c-.026001-.106766-.051869-.213572-.077604-.320418-.030004-.12466-.030004-.12466-.059302-.247146-.390187-1.633608-.750021-3.27816-1.078676-4.930108-.018732-.094222-.018732-.094222-.036983-.186525l-.117698-.58935c-121.766408-20.095018-187.824799-31.862334-200.659106-35.815708-7.851889-2.418632-15.105105-6.894096-21.797281-13.342411zm445.21378-12.983791.397008.000801c4.48451.012832 17.006193.180496 41.885964.543542.692083.010101.692083.010101 1.383946.020206 29.991554.438086 37.502969.544859 40.530303.560285l.181697.00084c.029382.000121.058327.000233.086854.000337l.500382.000953c4.732543 0 8.940144 2.098644 11.570049 5.871721 1.953271 2.802323 2.738325 6.01181 2.732185 9.352121-.01014 5.464108-2.075005 11.37644-6.25423 14.433842-.559256.409135-2.578967 1.476149-5.540318 2.960086l-.566161.283065c-4.230916 2.110778-10.180813 4.981329-16.500974 7.985263l-.864009.410396-.867838.411695c-.434751.206115-.870652.412584-1.307277.619211l-.874089.413403c-.2916.137831-.583395.275674-.875259.413468l-1.343604.633778-.610305.287512-1.218476.573335c-8.313003 3.908452-16.306205 7.603192-21.017346 9.70845-.713277.318741-1.293904.594885-2.627578 1.242746-10.185454 4.9478-17.784805 6.727242-35.122857 6.727242h-24.796784c-6.155562 0-10.050245-.555609-13.812121-2.827173-5.756364-3.475912-7.852001-9.474947-6.937918-16.409881.089607-.679823.185025-1.455593.320121-2.59211.041118-.345914.087426-.737762.179524-1.517465.076797-.649295.135218-1.139824.194602-1.632253.342019-2.836095.639493-5.075196.983749-7.292827 1.120409-7.217455 2.490331-12.618723 4.699994-16.803113 3.114631-5.898108 9.125222-9.499004 17.014959-11.809538 5.715502-1.673803 12.409727-2.569938 18.353799-2.569938zm-.122008 20c-4.100287 0-8.907357.643508-12.732815 1.763805-1.871366.548036-3.393757 1.176182-4.430607 1.79735-.267454.16023-.4756.303744-.62324.420629l-.045135.036216-.017182.037208c-.804218 1.740941-1.649003 5.1334-2.381153 9.716962l-.075332.478391c-.1657 1.067412-.424575 3.01284-.687307 5.063436l-.107471.842787c-.142976 1.126313-.283477 2.25256-.407008 3.253322l-.005547.041894.163687.001395.352401.000903h24.796784c14.283269 0 18.898109-1.080597 26.378049-4.714137 1.528086-.7423 2.242684-1.08216 3.212679-1.51562 2.691638-1.202807 9.656607-4.422653 17.282411-7.985836l.918037-.429123c.306916-.143519.614658-.28748.922995-.431776l1.000801-.468558 1.003218-.470093 1.505534-.706247 1.001613-.47039c1.000054-.469876 1.994558-.937804 2.975648-1.400143 2.78782-1.313758 5.408185-2.554191 7.806374-3.69565l.511769-.244725-.494981-.00633c-5.612843-.080283-13.139285-.189852-23.332604-.338724l-.994801-.014531c-.691724-.010102-.691724-.010102-1.383646-.0202-24.648887-.359678-37.257095-.528479-41.611575-.541408zm251.908797-45.147338v30.770773l-108 3.229227v-32.237219zm-399.822923-54.626777c-9.421363 1.426663-17.832784 6.843157-24.919593 15.347411 13.100309-8.109793 28.061186-12.714803 44.090156-12.714803l.06071-.003959c-6.320005-2.645709-12.787301-3.60445-19.231273-2.628649zm-111.206017-149.725933c4.324336 5.166745 27.020995 33.354262 68.089977 84.562551-21.842299 1.284063-41.649247 2.214768-56.627526 1.591803-15.069493-.626758-40.935323-2.767775-68.35737-5.233875l-1.938138-.174602c-.646827-.05837-1.294396-.116905-1.942586-.175589l-1.94631-.176483-2.92487-.266197c-1.951624-.177996-3.906128-.356984-5.86026-.536546l-3.906808-.359767-2.895845-.267593-1.927325-.178487c-29.527988-2.736777-57.854409-5.46212-73.621759-6.714351-34.633898-2.7506-33.16986-15.530444-35.530441-23.13514-1.573721-5.069797-2.434321-13.071086-2.581799-24.003866v-9.760424l8.840076-1.156137c69.204562-11.570031 124.558989-18.91203 166.06328-22.025996 4.544067-.051159 11.233828 1.040347 17.067704 8.010699zm-41.877015 54.526275 3.102722 26.370796c21.006021 1.483978 35.732867 2.225967 44.180539 2.225967 12.671507 0 25.631034-13.06177 25.631034-16.227976s-9.11838-15.597809-17.374707-17.674755c-5.504218-1.38463-24.017414.384026-55.539588 5.305968zm115.209278-65.173565c31.010908.025887 66.934221.686015 107.76994 1.980382l51.738738 3.027505c22.154552 7.564426 40.865108 18.670689 54.075096 26.183688 26.050802 14.816035 58.088347 35.474534 96.112633 61.975495-112.376669-1.415112-186.069494-2.122688-221.078202-2.122688-20.747306 0-43.056226 1.128877-64.640978 2.403669-43.220295-50.262722-67.272798-78.334737-72.159271-84.217877-2.774128-3.339952-6.374242-6.132584-10.171375-8.336713 16.016881-.578144 34.211107-.876234 54.580716-.893461z"/></svg>